<svg  viewBox="0 0 58 58" fill="none" xmlns="http://www.w3.org/2000/svg">
<g clip-path="url(#clip0_62_102)">
<path d="M48.72 0H9.28C4.1548 0 0 4.1548 0 9.28V48.72C0 53.8452 4.1548 58 9.28 58H48.72C53.8452 58 58 53.8452 58 48.72V9.28C58 4.1548 53.8452 0 48.72 0Z" fill="#0A45FB"/>
<path d="M6.24609 34.2051C6.24609 40.3652 11.2398 45.359 17.3999 45.359L40.4512 45.5077C46.6113 45.5077 51.6051 40.5139 51.6051 34.3538C51.6051 28.1937 46.6113 23.2 40.4512 23.2L17.3999 23.0513C11.2398 23.0513 6.24609 28.045 6.24609 34.2051Z" fill="white"/>
<circle cx="41.2962" cy="34.22" r="5.22" fill="#002BFE"/>
<circle cx="16.8196" cy="34.22" r="5.22" fill="#002BFE"/>
<path d="M14.2676 17.5161C17.1444 21.3673 17.6702 25.6941 17.5736 27.3761H20.8796C20.9762 25.6941 20.4736 21.4021 17.8056 17.5161H14.2676Z" fill="white"/>
<circle cx="15.4856" cy="16.53" r="3.886" fill="white"/>
<path d="M43.8594 17.5161C40.9826 21.3673 40.4567 25.6941 40.5534 27.3761H37.2474C37.1507 25.6941 37.6534 21.4021 40.3214 17.5161H43.8594Z" fill="white"/>
<circle cx="3.886" cy="3.886" r="3.886" transform="matrix(-1 0 0 1 46.5273 12.644)" fill="white"/>
<path d="M29.0659 40.8095C28.171 40.8321 27.2922 40.5673 26.5569 40.0535C26.3677 39.9049 25.982 39.5635 25.7193 39.2704C25.5928 39.1292 25.4652 38.9805 25.3119 38.8826C25.1454 38.7905 24.9582 38.7428 24.7682 38.7442C24.5782 38.7455 24.3916 38.7959 24.2264 38.8904C24.0613 38.9848 23.9229 39.1204 23.8245 39.284C23.7262 39.4476 23.6712 39.6338 23.6647 39.8249C23.6582 40.016 23.7006 40.2055 23.7876 40.3755C23.8747 40.5454 23.946 40.6834 24.0869 40.8095C24.5568 41.298 25.4563 41.9501 25.8985 42.2215C26.8637 42.7829 27.9647 43.0642 29.0792 43.0339C30.1937 43.0037 31.278 42.6632 32.2117 42.0502C32.7167 41.7187 33.4371 41.1558 33.7504 40.8095C33.907 40.6363 33.9679 40.5323 34.0793 40.3672C34.1663 40.1972 34.2261 40.016 34.2196 39.8249C34.2131 39.6338 34.1581 39.4476 34.0597 39.284C33.9614 39.1204 33.823 38.9848 33.6578 38.8904C33.4926 38.7959 33.3061 38.7455 33.1161 38.7442C32.9261 38.7428 32.7389 38.7905 32.5724 38.8826C32.4191 38.9805 32.2781 39.1066 32.165 39.2704C31.9962 39.4848 31.777 39.7211 31.5341 39.9278C30.8254 40.478 29.9609 40.7868 29.0659 40.8095Z" fill="#002BFE"/>
</g>
<defs>
<clipPath id="clip0_62_102">
<rect width="58" height="58" fill="white"/>
</clipPath>
</defs>
</svg>
