<svg viewBox="0 0 224 58" fill="none" xmlns="http://www.w3.org/2000/svg">
<path d="M89.1561 43.7105C88.3 43.7105 87.6371 43.2362 87.1676 42.2877L78.3847 23.0149C78.1637 22.5262 78.1361 22.0519 78.3019 21.592C78.4951 21.1033 78.8543 20.7297 79.379 20.471C79.8486 20.2123 80.318 20.1692 80.7876 20.3417C81.2847 20.5141 81.6576 20.8447 81.9061 21.3333L90.109 39.7438H88.1204L96.2404 21.3333C96.489 20.8447 96.8619 20.5141 97.359 20.3417C97.8837 20.1692 98.4086 20.2123 98.9333 20.471C99.4304 20.701 99.7619 21.0602 99.9276 21.5489C100.093 22.0376 100.066 22.5262 99.8447 23.0149L91.0619 42.2877C90.6476 43.2362 90.0123 43.7105 89.1561 43.7105ZM111.168 43.9261C109.152 43.9261 107.343 43.4087 105.741 42.3739C104.139 41.3104 102.868 39.8876 101.929 38.1054C101.018 36.2946 100.562 34.2537 100.562 31.983C100.562 29.7122 101.059 27.6714 102.054 25.8605C103.076 24.0496 104.443 22.6268 106.155 21.592C107.895 20.5285 109.842 19.9967 111.997 19.9967C114.151 19.9967 116.084 20.5285 117.797 21.592C119.509 22.6268 120.862 24.0496 121.857 25.8605C122.878 27.6714 123.389 29.7122 123.389 31.983H121.774C121.774 34.2537 121.304 36.2946 120.365 38.1054C119.454 39.8876 118.197 41.3104 116.595 42.3739C114.993 43.4087 113.184 43.9261 111.168 43.9261ZM111.997 40.0457C113.405 40.0457 114.662 39.7007 115.767 39.0109C116.871 38.2923 117.741 37.3294 118.377 36.1221C119.012 34.8862 119.329 33.5064 119.329 31.983C119.329 30.4308 119.012 29.0511 118.377 27.8438C117.741 26.6079 116.871 25.6449 115.767 24.9551C114.662 24.2365 113.405 23.8772 111.997 23.8772C110.616 23.8772 109.359 24.2365 108.227 24.9551C107.122 25.6449 106.238 26.6079 105.575 27.8438C104.94 29.0511 104.622 30.4308 104.622 31.983C104.622 33.5064 104.94 34.8862 105.575 36.1221C106.238 37.3294 107.122 38.2923 108.227 39.0109C109.359 39.7007 110.616 40.0457 111.997 40.0457ZM121.277 43.7967C120.669 43.7967 120.158 43.5956 119.744 43.1931C119.357 42.762 119.164 42.2302 119.164 41.5978V35.0011L119.951 30.4308L123.389 31.983V41.5978C123.389 42.2302 123.182 42.762 122.768 43.1931C122.381 43.5956 121.884 43.7967 121.277 43.7967ZM139.414 43.9261C137.26 43.9261 135.327 43.4087 133.614 42.3739C131.902 41.3104 130.548 39.8732 129.554 38.0623C128.56 36.2515 128.049 34.2106 128.021 31.9399V12.279C128.021 11.6178 128.215 11.0862 128.601 10.6837C129.016 10.2812 129.527 10.0801 130.134 10.0801C130.769 10.0801 131.28 10.2812 131.667 10.6837C132.054 11.0862 132.247 11.6178 132.247 12.279V23.9203C133.214 22.713 134.374 21.7645 135.727 21.0746C137.108 20.3561 138.613 19.9967 140.243 19.9967C142.259 19.9967 144.068 20.5285 145.67 21.592C147.272 22.6268 148.528 24.0496 149.44 25.8605C150.379 27.6427 150.848 29.6691 150.848 31.9399C150.848 34.2106 150.338 36.2515 149.316 38.0623C148.321 39.8732 146.968 41.3104 145.256 42.3739C143.543 43.4087 141.596 43.9261 139.414 43.9261ZM139.414 40.0457C140.823 40.0457 142.079 39.7007 143.184 39.0109C144.289 38.2923 145.159 37.3149 145.794 36.079C146.457 34.843 146.788 33.4633 146.788 31.9399C146.788 30.3877 146.457 29.008 145.794 27.8007C145.159 26.5935 144.289 25.6449 143.184 24.9551C142.079 24.2365 140.823 23.8772 139.414 23.8772C138.033 23.8772 136.777 24.2365 135.644 24.9551C134.539 25.6449 133.669 26.5935 133.034 27.8007C132.399 29.008 132.081 30.3877 132.081 31.9399C132.081 33.4633 132.399 34.843 133.034 36.079C133.669 37.3149 134.539 38.2923 135.644 39.0109C136.777 39.7007 138.033 40.0457 139.414 40.0457ZM164.939 43.9261C162.923 43.9261 161.114 43.4087 159.512 42.3739C157.91 41.3104 156.64 39.8876 155.701 38.1054C154.789 36.2946 154.334 34.2537 154.334 31.983C154.334 29.7122 154.831 27.6714 155.825 25.8605C156.847 24.0496 158.214 22.6268 159.927 21.592C161.667 20.5285 163.614 19.9967 165.768 19.9967C167.922 19.9967 169.856 20.5285 171.568 21.592C173.28 22.6268 174.634 24.0496 175.628 25.8605C176.65 27.6714 177.161 29.7122 177.161 31.983H175.545C175.545 34.2537 175.076 36.2946 174.137 38.1054C173.225 39.8876 171.968 41.3104 170.367 42.3739C168.765 43.4087 166.956 43.9261 164.939 43.9261ZM165.768 40.0457C167.177 40.0457 168.433 39.7007 169.538 39.0109C170.643 38.2923 171.513 37.3294 172.148 36.1221C172.783 34.8862 173.101 33.5064 173.101 31.983C173.101 30.4308 172.783 29.0511 172.148 27.8438C171.513 26.6079 170.643 25.6449 169.538 24.9551C168.433 24.2365 167.177 23.8772 165.768 23.8772C164.387 23.8772 163.13 24.2365 161.998 24.9551C160.893 25.6449 160.009 26.6079 159.347 27.8438C158.711 29.0511 158.394 30.4308 158.394 31.983C158.394 33.5064 158.711 34.8862 159.347 36.1221C160.009 37.3294 160.893 38.2923 161.998 39.0109C163.13 39.7007 164.387 40.0457 165.768 40.0457ZM175.048 43.7967C174.44 43.7967 173.929 43.5956 173.515 43.1931C173.128 42.762 172.935 42.2302 172.935 41.5978V35.0011L173.722 30.4308L177.161 31.983V41.5978C177.161 42.2302 176.954 42.762 176.539 43.1931C176.153 43.5956 175.656 43.7967 175.048 43.7967ZM190.037 43.9261C188.104 43.9261 186.308 43.6243 184.651 43.0207C183.022 42.3883 181.751 41.5978 180.84 40.6493C180.426 40.1894 180.246 39.672 180.301 39.0971C180.384 38.4935 180.66 38.0048 181.13 37.6312C181.682 37.1713 182.221 36.9844 182.746 37.0707C183.298 37.1282 183.767 37.3725 184.154 37.8036C184.624 38.3497 185.369 38.8671 186.391 39.3558C187.441 39.8157 188.601 40.0457 189.871 40.0457C191.473 40.0457 192.688 39.7726 193.517 39.2265C194.373 38.6804 194.815 37.9761 194.843 37.1138C194.87 36.2515 194.47 35.5041 193.641 34.8717C192.84 34.2394 191.363 33.722 189.208 33.3196C186.419 32.7447 184.389 31.8823 183.118 30.7326C181.876 29.5829 181.254 28.1744 181.254 26.5073C181.254 25.0413 181.668 23.8341 182.497 22.8855C183.326 21.9083 184.389 21.1896 185.687 20.7297C186.985 20.241 188.338 19.9967 189.747 19.9967C191.57 19.9967 193.186 20.2986 194.594 20.9022C196.003 21.5058 197.121 22.3394 197.95 23.4029C198.337 23.8628 198.516 24.3515 198.489 24.8688C198.461 25.3575 198.226 25.7743 197.784 26.1192C197.343 26.4354 196.817 26.536 196.21 26.421C195.602 26.3061 195.091 26.0474 194.677 25.6449C193.987 24.9551 193.241 24.4808 192.44 24.2221C191.639 23.9634 190.714 23.8341 189.664 23.8341C188.449 23.8341 187.413 24.0496 186.557 24.4808C185.728 24.912 185.314 25.5443 185.314 26.3779C185.314 26.8953 185.438 27.3696 185.687 27.8007C185.963 28.2032 186.488 28.5768 187.261 28.9217C188.035 29.238 189.167 29.5541 190.658 29.8703C192.73 30.3015 194.359 30.8476 195.547 31.5087C196.763 32.1699 197.633 32.9459 198.157 33.837C198.681 34.6993 198.944 35.7054 198.944 36.8551C198.944 38.1773 198.599 39.3702 197.909 40.4337C197.246 41.4972 196.251 42.3452 194.926 42.9775C193.627 43.6099 191.998 43.9261 190.037 43.9261ZM213.277 43.9261C210.985 43.9261 208.94 43.4231 207.146 42.417C205.377 41.3823 203.983 39.9738 202.962 38.1917C201.967 36.3808 201.47 34.3112 201.47 31.983C201.47 29.626 201.939 27.5564 202.879 25.7743C203.845 23.9634 205.17 22.555 206.856 21.5489C208.54 20.5141 210.473 19.9967 212.656 19.9967C214.81 19.9967 216.66 20.4997 218.207 21.5058C219.753 22.4831 220.927 23.8485 221.729 25.6018C222.557 27.3265 222.972 29.3242 222.972 31.5949C222.972 32.141 222.792 32.601 222.433 32.9746C222.073 33.3196 221.617 33.492 221.066 33.492H204.37V30.0428H220.942L219.243 31.25C219.215 29.8128 218.939 28.5337 218.414 27.4127C217.889 26.263 217.143 25.3575 216.177 24.6964C215.21 24.0352 214.036 23.7047 212.656 23.7047C211.082 23.7047 209.727 24.0641 208.596 24.7826C207.49 25.5012 206.649 26.4928 206.069 27.7576C205.489 28.9936 205.199 30.4021 205.199 31.983C205.199 33.5639 205.543 34.9724 206.234 36.2083C206.925 37.4443 207.877 38.4217 209.093 39.1402C210.307 39.8588 211.703 40.2181 213.277 40.2181C214.133 40.2181 215.003 40.0601 215.887 39.7438C216.799 39.3989 217.53 39.0109 218.083 38.5797C218.497 38.2635 218.939 38.1054 219.409 38.1054C219.906 38.0767 220.333 38.2204 220.693 38.5366C221.162 38.9678 221.41 39.442 221.439 39.9594C221.466 40.4768 221.245 40.9224 220.776 41.296C219.836 42.0721 218.663 42.7044 217.254 43.1931C215.873 43.6818 214.547 43.9261 213.277 43.9261Z" fill="white"/>
<mask id="mask0_106_693" style="mask-type:luminance" maskUnits="userSpaceOnUse" x="77" y="9" width="147" height="36">
<path d="M77.5264 9.38428H223.592V44.6162H77.5264V9.38428Z" fill="white"/>
</mask>
<g mask="url(#mask0_106_693)">
<path d="M87.1676 42.2879L86.6329 42.5519L86.637 42.561L86.6415 42.57L87.1676 42.2879ZM78.3848 23.0151L77.8493 23.2773L77.8496 23.2782L77.85 23.2791L78.3848 23.0151ZM78.3019 21.5923L77.7547 21.3577L77.7512 21.3668L77.7477 21.3759L78.3019 21.5923ZM79.3791 20.4712L79.6324 21.0279L79.6443 21.022L79.6559 21.0156L79.3791 20.4712ZM80.7876 20.3419L80.5907 20.9227L80.5955 20.9244L80.6005 20.9262L80.7876 20.3419ZM81.9062 21.3336L82.4431 21.0745L82.4366 21.0597L82.4293 21.0453L81.9062 21.3336ZM90.1091 39.7441V40.36H91.0359L90.646 39.485L90.1091 39.7441ZM88.1205 39.7441L87.5826 39.4871L87.1976 40.36H88.1205V39.7441ZM96.2405 21.3336L95.7174 21.0453L95.7096 21.0608L95.7026 21.0766L96.2405 21.3336ZM97.3591 20.3419L97.1808 19.7545L97.1764 19.756L97.1719 19.7576L97.3591 20.3419ZM98.9334 20.4712L98.6801 21.0279L98.6864 21.031L98.693 21.0341L98.9334 20.4712ZM99.8448 23.0151L100.38 23.2791L100.38 23.2782L100.38 23.2773L99.8448 23.0151ZM91.0619 42.2879L90.5271 42.0239L90.5251 42.0285L90.5231 42.033L91.0619 42.2879ZM89.1562 43.0948C88.5699 43.0948 88.0861 42.7983 87.6938 42.0058L86.6415 42.57C87.1884 43.6746 88.0302 44.3267 89.1562 44.3267V43.0948ZM87.7024 42.0239L78.9196 22.7511L77.85 23.2791L86.6329 42.5519L87.7024 42.0239ZM78.9203 22.7528C78.7599 22.398 78.7522 22.0966 78.8561 21.8086L77.7477 21.3759C77.5201 22.0079 77.5678 22.6549 77.8493 23.2773L78.9203 22.7528ZM78.8493 21.8268C78.9784 21.5002 79.2202 21.2311 79.6324 21.0279L79.1258 19.9144C78.4884 20.2287 78.0122 20.707 77.7547 21.3577L78.8493 21.8268ZM79.6559 21.0156C79.9903 20.8313 80.2884 20.8117 80.5907 20.9227L80.9846 19.7611C80.3478 19.5271 79.7068 19.5938 79.1022 19.9269L79.6559 21.0156ZM80.6005 20.9262C80.951 21.0479 81.2047 21.271 81.3832 21.6217L82.4293 21.0453C82.1106 20.4188 81.6185 19.9808 80.9748 19.7576L80.6005 20.9262ZM81.3693 21.5926L89.5722 40.0031L90.646 39.485L82.4431 21.0745L81.3693 21.5926ZM90.1091 39.1281H88.1205V40.36H90.1091V39.1281ZM88.6584 40.001L96.7784 21.5905L95.7026 21.0766L87.5826 39.4871L88.6584 40.001ZM96.7637 21.6217C96.9422 21.271 97.1958 21.0479 97.5463 20.9262L97.1721 19.7576C96.5283 19.9808 96.0362 20.4189 95.7176 21.0454L96.7637 21.6217ZM97.5375 20.9293C97.9114 20.8063 98.2822 20.8317 98.6802 21.0278L99.1868 19.9146C98.5353 19.5934 97.8565 19.5325 97.1808 19.7545L97.5375 20.9293ZM98.6931 21.0341C99.0569 21.2024 99.2635 21.4409 99.3697 21.7541L100.486 21.3442C100.261 20.6802 99.8043 20.2 99.1739 19.9084L98.6931 21.0341ZM99.3697 21.7541C99.4812 22.083 99.4672 22.4039 99.3094 22.7528L100.38 23.2773C100.664 22.649 100.706 21.9925 100.486 21.3442L99.3697 21.7541ZM99.3101 22.7511L90.5271 42.0239L91.5968 42.5519L100.38 23.2791L99.3101 22.7511ZM90.5232 42.033C90.3472 42.4362 90.1429 42.6955 89.9299 42.8546C89.7225 43.0094 89.4728 43.0948 89.1562 43.0948V44.3267C89.6957 44.3267 90.192 44.1749 90.6199 43.8555C91.042 43.5402 91.3626 43.0881 91.6009 42.5428L90.5232 42.033ZM105.741 42.3741L105.423 42.8934L105.426 42.8955L105.429 42.8974L105.741 42.3741ZM101.93 38.1057L101.405 38.3915L101.408 38.3966L101.411 38.4018L101.93 38.1057ZM102.054 25.8607L101.544 25.5488L101.542 25.5519L101.54 25.5551L102.054 25.8607ZM106.155 21.5923L106.453 22.1249L106.454 22.1242L106.455 22.1233L106.155 21.5923ZM117.797 21.5923L117.493 22.1212L117.497 22.1231L117.5 22.1249L117.797 21.5923ZM121.857 25.8607L121.343 26.1664L121.345 26.1694L121.346 26.1726L121.857 25.8607ZM123.39 31.9832V32.5991H123.981V31.9832H123.39ZM121.774 31.9832V31.3673H121.182V31.9832H121.774ZM120.365 38.1057L119.844 37.8131L119.844 37.8147L119.843 37.8163L120.365 38.1057ZM116.595 42.3741L116.907 42.8974L116.911 42.8955L116.914 42.8934L116.595 42.3741ZM115.767 39.0111L116.071 39.5392L116.076 39.5364L116.08 39.5334L115.767 39.0111ZM118.377 36.1223L118.896 36.4182L118.897 36.4155L118.899 36.4128L118.377 36.1223ZM118.377 27.8441L117.855 28.1345L117.856 28.1373L117.858 28.14L118.377 27.8441ZM115.767 24.9553L115.453 25.4776L115.458 25.4806L115.462 25.4834L115.767 24.9553ZM108.227 24.9553L108.531 25.4834L108.533 25.4823L108.535 25.4812L108.227 24.9553ZM105.575 27.8441L105.059 27.5439L105.057 27.5461L105.056 27.5482L105.575 27.8441ZM105.575 36.1223L105.053 36.4128L105.057 36.4204L105.061 36.428L105.575 36.1223ZM108.227 39.0111L107.913 39.5334L107.92 39.5381L107.928 39.5427L108.227 39.0111ZM119.744 43.1933L119.311 43.6137L119.325 43.6292L119.34 43.6436L119.744 43.1933ZM119.164 35.0013L118.581 34.8927L118.572 34.9465V35.0013H119.164ZM119.951 30.431L120.187 29.866L119.5 29.5563L119.369 30.3224L119.951 30.431ZM123.39 31.9832H123.981V31.579L123.625 31.4181L123.39 31.9832ZM111.168 43.3104C109.254 43.3104 107.555 42.8208 106.053 41.8508L105.429 42.8974C107.131 43.997 109.05 44.5422 111.168 44.5422V43.3104ZM106.059 41.8549C104.544 40.8486 103.341 39.5035 102.449 37.8095L101.411 38.4018C102.396 40.272 103.735 41.7726 105.423 42.8934L106.059 41.8549ZM102.454 37.8199C101.592 36.1066 101.154 34.1656 101.154 31.9832H99.9706C99.9706 34.3423 100.445 36.483 101.405 38.3915L102.454 37.8199ZM101.154 31.9832C101.154 29.8098 101.629 27.876 102.568 26.1664L101.54 25.5551C100.49 27.4672 99.9706 29.615 99.9706 31.9832H101.154ZM102.564 26.1726C103.536 24.4515 104.83 23.1054 106.453 22.1249L105.858 21.0596C104.056 22.1486 102.616 23.6483 101.544 25.5488L102.564 26.1726ZM106.455 22.1233C108.098 21.1191 109.94 20.6129 111.997 20.6129V19.381C109.744 19.381 107.693 19.9383 105.856 21.0612L106.455 22.1233ZM111.997 20.6129C114.053 20.6129 115.88 21.1192 117.493 22.1212L118.1 21.0633C116.289 19.9383 114.249 19.381 111.997 19.381V20.6129ZM117.5 22.1249C119.121 23.1045 120.4 24.4485 121.343 26.1664L122.371 25.5551C121.325 23.6512 119.898 22.1496 118.094 21.0596L117.5 22.1249ZM121.346 26.1726C122.311 27.8813 122.798 29.8129 122.798 31.9832H123.981C123.981 29.6119 123.447 27.4619 122.367 25.5488L121.346 26.1726ZM123.39 31.3673H121.774V32.5991H123.39V31.3673ZM121.182 31.9832C121.182 34.1626 120.732 36.1011 119.844 37.8131L120.886 38.3982C121.877 36.4884 122.366 34.3453 122.366 31.9832H121.182ZM119.843 37.8163C118.978 39.5068 117.791 40.8496 116.277 41.8549L116.914 42.8934C118.603 41.7716 119.929 40.2687 120.888 38.395L119.843 37.8163ZM116.283 41.8508C114.782 42.8208 113.082 43.3104 111.168 43.3104V44.5422C113.287 44.5422 115.205 43.997 116.907 42.8974L116.283 41.8508ZM111.997 40.6618C113.502 40.6618 114.866 40.2919 116.071 39.5392L115.462 38.483C114.458 39.11 113.308 39.4299 111.997 39.4299V40.6618ZM116.08 39.5334C117.272 38.7579 118.213 37.7165 118.896 36.4182L117.858 35.8264C117.27 36.9426 116.471 37.827 115.453 38.4888L116.08 39.5334ZM118.899 36.4128C119.584 35.0799 119.921 33.5989 119.921 31.9832H118.738C118.738 33.4143 118.44 34.6928 117.855 35.8318L118.899 36.4128ZM119.921 31.9832C119.921 30.341 119.585 28.8573 118.896 27.5482L117.858 28.14C118.439 29.2453 118.738 30.5211 118.738 31.9832H119.921ZM118.899 27.5536C118.215 26.224 117.272 25.1769 116.071 24.4272L115.462 25.4834C116.471 26.1134 117.268 26.9921 117.855 28.1345L118.899 27.5536ZM116.08 24.433C114.874 23.6483 113.507 23.2615 111.997 23.2615V24.4933C113.304 24.4933 114.45 24.8252 115.453 25.4776L116.08 24.433ZM111.997 23.2615C110.512 23.2615 109.148 23.6494 107.919 24.4294L108.535 25.4812C109.571 24.824 110.72 24.4933 111.997 24.4933V23.2615ZM107.922 24.4272C106.724 25.1754 105.769 26.2193 105.059 27.5439L106.092 28.1443C106.707 26.9968 107.52 26.1149 108.531 25.4834L107.922 24.4272ZM105.056 27.5482C104.367 28.8573 104.031 30.341 104.031 31.9832H105.214C105.214 30.5211 105.513 29.2453 106.094 28.14L105.056 27.5482ZM104.031 31.9832C104.031 33.5989 104.368 35.0799 105.053 36.4128L106.097 35.8318C105.512 34.6928 105.214 33.4143 105.214 31.9832H104.031ZM105.061 36.428C105.772 37.7212 106.723 38.7594 107.913 39.5334L108.54 38.4888C107.521 37.8255 106.705 36.938 106.089 35.8167L105.061 36.428ZM107.928 39.5427C109.156 40.2907 110.516 40.6618 111.997 40.6618V39.4299C110.715 39.4299 109.563 39.1112 108.526 38.4795L107.928 39.5427ZM121.277 43.181C120.807 43.181 120.444 43.0309 120.148 42.7431L119.34 43.6436C119.872 44.1606 120.531 44.4129 121.277 44.4129V43.181ZM120.177 42.773C119.9 42.4647 119.756 42.0867 119.756 41.598H118.572C118.572 42.3741 118.814 43.0597 119.311 43.6137L120.177 42.773ZM119.756 41.598V35.0013H118.572V41.598H119.756ZM119.746 35.11L120.534 30.5397L119.369 30.3224L118.581 34.8927L119.746 35.11ZM119.716 30.9961L123.154 32.5483L123.625 31.4181L120.187 29.866L119.716 30.9961ZM122.798 31.9832V41.598H123.981V31.9832H122.798ZM122.798 41.598C122.798 42.0738 122.648 42.4468 122.35 42.7577L123.187 43.6289C123.716 43.0775 123.981 42.3871 123.981 41.598H122.798ZM122.35 42.7577C122.087 43.0313 121.747 43.181 121.277 43.181V44.4129C122.022 44.4129 122.676 44.1601 123.187 43.6289L122.35 42.7577ZM133.614 42.3741L133.311 42.9031L133.314 42.905L133.317 42.9068L133.614 42.3741ZM128.022 31.9401H127.43V31.9478L128.022 31.9401ZM128.602 10.6839L128.198 10.2337L128.19 10.2409L128.183 10.2483L128.602 10.6839ZM132.247 23.9205H131.655V25.6217L132.702 24.3148L132.247 23.9205ZM135.727 21.0749L135.988 21.628L135.99 21.6269L135.992 21.6258L135.727 21.0749ZM145.67 21.5923L145.352 22.1115L145.355 22.1136L145.358 22.1156L145.67 21.5923ZM149.44 25.8607L148.916 26.1465L148.918 26.1517L148.921 26.1569L149.44 25.8607ZM149.316 38.0625L148.805 37.7506L148.804 37.7538L148.802 37.7569L149.316 38.0625ZM145.256 42.3741L145.553 42.9068L145.556 42.905L145.559 42.9031L145.256 42.3741ZM143.184 39.0111L143.489 39.5392L143.493 39.5364L143.498 39.5334L143.184 39.0111ZM145.794 36.0792L145.278 35.779L145.275 35.7838L145.273 35.7887L145.794 36.0792ZM145.794 27.8009L145.275 28.0968L145.278 28.1017L145.281 28.1066L145.794 27.8009ZM143.184 24.9553L142.871 25.4776L142.875 25.4806L142.88 25.4834L143.184 24.9553ZM135.644 24.9553L135.949 25.4834L135.951 25.4823L135.953 25.4812L135.644 24.9553ZM135.644 39.0111L135.331 39.5334L135.338 39.5381L135.345 39.5427L135.644 39.0111ZM139.414 43.3104C137.355 43.3104 135.526 42.817 133.912 41.8415L133.317 42.9068C135.128 44.0008 137.165 44.5422 139.414 44.5422V43.3104ZM133.918 41.8452C132.293 40.8363 131.012 39.4763 130.068 37.7569L129.041 38.3682C130.085 40.2706 131.511 41.7849 133.311 42.9031L133.918 41.8452ZM130.068 37.7569C129.128 36.0448 128.64 34.1081 128.613 31.9323L127.43 31.9478C127.458 34.3137 127.992 36.4585 129.041 38.3682L130.068 37.7569ZM128.613 31.9401V12.2792H127.43V31.9401H128.613ZM128.613 12.2792C128.613 11.7529 128.762 11.3876 129.02 11.1195L128.183 10.2483C127.667 10.7851 127.43 11.4833 127.43 12.2792H128.613ZM129.005 11.1342C129.302 10.8464 129.665 10.6962 130.134 10.6962V9.46436C129.389 9.46436 128.73 9.71665 128.198 10.2337L129.005 11.1342ZM130.134 10.6962C130.64 10.6962 130.991 10.8513 131.249 11.1195L132.086 10.2483C131.57 9.71172 130.899 9.46436 130.134 9.46436V10.6962ZM131.249 11.1195C131.506 11.3876 131.655 11.7529 131.655 12.2792H132.839C132.839 11.4833 132.601 10.7849 132.086 10.2483L131.249 11.1195ZM131.655 12.2792V23.9205H132.839V12.2792H131.655ZM132.702 24.3148C133.615 23.174 134.709 22.2798 135.987 21.6281L135.467 20.5217C134.039 21.2498 132.812 22.2525 131.792 23.5262L132.702 24.3148ZM135.992 21.6258C137.286 20.9523 138.7 20.6129 140.243 20.6129V19.381C138.527 19.381 136.93 19.7602 135.462 20.524L135.992 21.6258ZM140.243 20.6129C142.153 20.6129 143.851 21.115 145.352 22.1115L145.988 21.073C144.285 19.9424 142.365 19.381 140.243 19.381V20.6129ZM145.358 22.1156C146.866 23.0899 148.051 24.4289 148.916 26.1465L149.964 25.5749C149.006 23.6708 147.678 22.1642 145.982 21.0689L145.358 22.1156ZM148.921 26.1569C149.807 27.838 150.257 29.7605 150.257 31.9401H151.44C151.44 29.5782 150.951 27.4478 149.959 25.5646L148.921 26.1569ZM150.257 31.9401C150.257 34.1104 149.77 36.042 148.805 37.7506L149.826 38.3745C150.906 36.4613 151.44 34.3113 151.44 31.9401H150.257ZM148.802 37.7569C147.858 39.4763 146.577 40.8363 144.952 41.8452L145.559 42.9031C147.359 41.7849 148.785 40.2706 149.83 38.3682L148.802 37.7569ZM144.958 41.8415C143.345 42.8163 141.503 43.3104 139.414 43.3104V44.5422C141.69 44.5422 143.741 44.0016 145.553 42.9068L144.958 41.8415ZM139.414 40.6618C140.92 40.6618 142.284 40.2919 143.489 39.5392L142.88 38.483C141.875 39.11 140.726 39.4299 139.414 39.4299V40.6618ZM143.498 39.5334C144.693 38.7558 145.634 37.6973 146.316 36.3697L145.273 35.7887C144.684 36.9332 143.885 37.8292 142.871 38.4888L143.498 39.5334ZM146.311 36.3794C147.027 35.0447 147.38 33.5604 147.38 31.9401H146.197C146.197 33.3667 145.887 34.6417 145.277 35.779L146.311 36.3794ZM147.38 31.9401C147.38 30.2934 147.028 28.8062 146.308 27.4953L145.281 28.1066C145.886 29.2102 146.197 30.4824 146.197 31.9401H147.38ZM146.313 27.5051C145.629 26.2047 144.686 25.1748 143.489 24.4272L142.88 25.4834C143.892 26.1155 144.689 26.9827 145.275 28.0968L146.313 27.5051ZM143.498 24.433C142.291 23.6483 140.924 23.2615 139.414 23.2615V24.4933C140.721 24.4933 141.868 24.8252 142.871 25.4776L143.498 24.433ZM139.414 23.2615C137.929 23.2615 136.565 23.6494 135.336 24.4294L135.952 25.4812C136.988 24.824 138.137 24.4933 139.414 24.4933V23.2615ZM135.34 24.4272C134.142 25.1748 133.199 26.2047 132.515 27.5051L133.553 28.0968C134.14 26.9827 134.937 26.1155 135.949 25.4834L135.34 24.4272ZM132.515 27.5051C131.826 28.8142 131.49 30.2979 131.49 31.9401H132.673C132.673 30.478 132.972 29.2022 133.553 28.0968L132.515 27.5051ZM131.49 31.9401C131.49 33.5558 131.827 35.0368 132.512 36.3697L133.556 35.7887C132.971 34.6497 132.673 33.3712 132.673 31.9401H131.49ZM132.512 36.3697C133.195 37.6973 134.135 38.7558 135.331 39.5334L135.958 38.4888C134.944 37.8292 134.144 36.9332 133.556 35.7887L132.512 36.3697ZM135.345 39.5427C136.573 40.2907 137.934 40.6618 139.414 40.6618V39.4299C138.133 39.4299 136.98 39.1112 135.943 38.4795L135.345 39.5427ZM159.512 42.3741L159.194 42.8934L159.197 42.8955L159.2 42.8974L159.512 42.3741ZM155.701 38.1057L155.177 38.3915L155.179 38.3966L155.182 38.4018L155.701 38.1057ZM155.825 25.8607L155.315 25.5488L155.313 25.5519L155.311 25.5551L155.825 25.8607ZM159.927 21.5923L160.224 22.1249L160.225 22.1242L160.226 22.1233L159.927 21.5923ZM171.568 21.5923L171.265 22.1212L171.268 22.1231L171.271 22.1249L171.568 21.5923ZM175.628 25.8607L175.114 26.1664L175.116 26.1694L175.118 26.1726L175.628 25.8607ZM177.161 31.9832V32.5991H177.753V31.9832H177.161ZM175.545 31.9832V31.3673H174.953V31.9832H175.545ZM174.137 38.1057L173.616 37.8131L173.615 37.8147L173.614 37.8163L174.137 38.1057ZM170.367 42.3741L170.679 42.8974L170.682 42.8955L170.685 42.8934L170.367 42.3741ZM169.538 39.0111L169.843 39.5392L169.847 39.5364L169.852 39.5334L169.538 39.0111ZM172.148 36.1223L172.667 36.4182L172.669 36.4155L172.67 36.4128L172.148 36.1223ZM172.148 27.8441L171.626 28.1345L171.627 28.1373L171.629 28.14L172.148 27.8441ZM169.538 24.9553L169.224 25.4776L169.229 25.4806L169.234 25.4834L169.538 24.9553ZM161.998 24.9553L162.303 25.4834L162.304 25.4823L162.306 25.4812L161.998 24.9553ZM159.347 27.8441L158.83 27.5439L158.829 27.5461L158.827 27.5482L159.347 27.8441ZM159.347 36.1223L158.825 36.4128L158.829 36.4204L158.833 36.428L159.347 36.1223ZM161.998 39.0111L161.684 39.5334L161.692 39.5381L161.699 39.5427L161.998 39.0111ZM173.515 43.1933L173.082 43.6137L173.096 43.6292L173.111 43.6436L173.515 43.1933ZM172.935 35.0013L172.353 34.8927L172.343 34.9465V35.0013H172.935ZM173.722 30.431L173.958 29.866L173.272 29.5563L173.14 30.3224L173.722 30.431ZM177.161 31.9832H177.753V31.579L177.396 31.4181L177.161 31.9832ZM164.939 43.3104C163.026 43.3104 161.326 42.8208 159.824 41.8508L159.2 42.8974C160.902 43.997 162.821 44.5422 164.939 44.5422V43.3104ZM159.831 41.8549C158.315 40.8486 157.112 39.5035 156.22 37.8095L155.182 38.4018C156.167 40.272 157.506 41.7726 159.194 42.8934L159.831 41.8549ZM156.225 37.8199C155.363 36.1066 154.926 34.1656 154.926 31.9832H153.742C153.742 34.3423 154.216 36.483 155.177 38.3915L156.225 37.8199ZM154.926 31.9832C154.926 29.8098 155.4 27.876 156.339 26.1664L155.311 25.5551C154.261 27.4672 153.742 29.615 153.742 31.9832H154.926ZM156.335 26.1726C157.307 24.4515 158.601 23.1054 160.224 22.1249L159.629 21.0596C157.827 22.1486 156.387 23.6483 155.315 25.5488L156.335 26.1726ZM160.226 22.1233C161.869 21.1191 163.712 20.6129 165.768 20.6129V19.381C163.516 19.381 161.464 19.9383 159.627 21.0612L160.226 22.1233ZM165.768 20.6129C167.824 20.6129 169.651 21.1192 171.265 22.1212L171.871 21.0633C170.06 19.9383 168.02 19.381 165.768 19.381V20.6129ZM171.271 22.1249C172.892 23.1045 174.171 24.4485 175.114 26.1664L176.142 25.5551C175.096 23.6512 173.669 22.1496 171.865 21.0596L171.271 22.1249ZM175.118 26.1726C176.082 27.8813 176.569 29.8129 176.569 31.9832H177.753C177.753 29.6119 177.218 27.4619 176.138 25.5488L175.118 26.1726ZM177.161 31.3673H175.545V32.5991H177.161V31.3673ZM174.953 31.9832C174.953 34.1626 174.503 36.1011 173.616 37.8131L174.657 38.3982C175.648 36.4884 176.137 34.3453 176.137 31.9832H174.953ZM173.614 37.8163C172.75 39.5068 171.562 40.8496 170.048 41.8549L170.685 42.8934C172.375 41.7716 173.701 40.2687 174.659 38.395L173.614 37.8163ZM170.055 41.8508C168.553 42.8208 166.853 43.3104 164.939 43.3104V44.5422C167.058 44.5422 168.977 43.997 170.679 42.8974L170.055 41.8508ZM165.768 40.6618C167.273 40.6618 168.637 40.2919 169.843 39.5392L169.234 38.483C168.229 39.11 167.08 39.4299 165.768 39.4299V40.6618ZM169.852 39.5334C171.044 38.7579 171.984 37.7165 172.667 36.4182L171.629 35.8264C171.042 36.9426 170.242 37.827 169.224 38.4888L169.852 39.5334ZM172.67 36.4128C173.355 35.0799 173.693 33.5989 173.693 31.9832H172.509C172.509 33.4143 172.212 34.6928 171.626 35.8318L172.67 36.4128ZM173.693 31.9832C173.693 30.341 173.356 28.8573 172.667 27.5482L171.629 28.14C172.211 29.2453 172.509 30.5211 172.509 31.9832H173.693ZM172.67 27.5536C171.987 26.224 171.043 25.1769 169.843 24.4272L169.234 25.4834C170.242 26.1134 171.039 26.9921 171.626 28.1345L172.67 27.5536ZM169.852 24.433C168.645 23.6483 167.278 23.2615 165.768 23.2615V24.4933C167.075 24.4933 168.221 24.8252 169.224 25.4776L169.852 24.433ZM165.768 23.2615C164.283 23.2615 162.919 23.6494 161.69 24.4294L162.306 25.4812C163.342 24.824 164.491 24.4933 165.768 24.4933V23.2615ZM161.694 24.4272C160.495 25.1754 159.54 26.2193 158.83 27.5439L159.863 28.1443C160.479 26.9968 161.291 26.1149 162.303 25.4834L161.694 24.4272ZM158.827 27.5482C158.139 28.8573 157.802 30.341 157.802 31.9832H158.986C158.986 30.5211 159.284 29.2453 159.866 28.14L158.827 27.5482ZM157.802 31.9832C157.802 33.5989 158.14 35.0799 158.825 36.4128L159.868 35.8318C159.283 34.6928 158.986 33.4143 158.986 31.9832H157.802ZM158.833 36.428C159.543 37.7212 160.494 38.7594 161.684 39.5334L162.312 38.4888C161.292 37.8255 160.476 36.938 159.86 35.8167L158.833 36.428ZM161.699 39.5427C162.927 40.2907 164.288 40.6618 165.768 40.6618V39.4299C164.486 39.4299 163.334 39.1112 162.297 38.4795L161.699 39.5427ZM175.048 43.181C174.578 43.181 174.215 43.0309 173.919 42.7431L173.111 43.6436C173.644 44.1606 174.302 44.4129 175.048 44.4129V43.181ZM173.948 42.773C173.671 42.4647 173.527 42.0867 173.527 41.598H172.343C172.343 42.3741 172.586 43.0597 173.082 43.6137L173.948 42.773ZM173.527 41.598V35.0013H172.343V41.598H173.527ZM173.518 35.11L174.305 30.5397L173.14 30.3224L172.353 34.8927L173.518 35.11ZM173.487 30.9961L176.925 32.5483L177.396 31.4181L173.958 29.866L173.487 30.9961ZM176.569 31.9832V41.598H177.753V31.9832H176.569ZM176.569 41.598C176.569 42.0738 176.42 42.4468 176.121 42.7577L176.958 43.6289C177.488 43.0775 177.753 42.3871 177.753 41.598H176.569ZM176.121 42.7577C175.858 43.0313 175.518 43.181 175.048 43.181V44.4129C175.793 44.4129 176.447 44.1601 176.958 43.6289L176.121 42.7577ZM184.651 43.0209L184.445 43.598L184.45 43.6002L184.456 43.6022L184.651 43.0209ZM180.84 40.6495L180.408 41.0708L180.415 41.0781L180.421 41.0851L180.84 40.6495ZM180.301 39.0973L179.715 39.0102L179.714 39.023L179.712 39.036L180.301 39.0973ZM181.13 37.6314L181.489 38.1207L181.495 38.1166L181.5 38.1123L181.13 37.6314ZM182.746 37.0709L182.653 37.6793L182.67 37.682L182.687 37.6837L182.746 37.0709ZM184.154 37.8038L184.595 37.3931L184.591 37.3883L184.587 37.3835L184.154 37.8038ZM186.391 39.356L186.144 39.9157L186.153 39.9199L186.162 39.9237L186.391 39.356ZM193.517 39.2267L193.208 38.7015L193.204 38.7039L193.2 38.7063L193.517 39.2267ZM193.641 34.872L193.284 35.3626L193.288 35.3657L193.291 35.3687L193.641 34.872ZM189.208 33.3198L189.094 33.924L189.099 33.925L189.104 33.926L189.208 33.3198ZM183.118 30.7328L182.725 31.1932L182.728 31.1954L182.73 31.1976L183.118 30.7328ZM182.497 22.8857L182.935 23.3L182.938 23.2967L182.941 23.2932L182.497 22.8857ZM185.687 20.7299L185.878 21.313L185.883 21.3111L185.888 21.3092L185.687 20.7299ZM197.95 23.4031L197.491 23.791L197.497 23.8L197.505 23.8088L197.95 23.4031ZM198.489 24.8691L199.079 24.9053V24.9032L198.489 24.8691ZM197.784 26.1194L198.119 26.627L198.13 26.6198L198.139 26.6122L197.784 26.1194ZM194.677 25.6452L194.267 26.0895L194.27 26.0924L194.273 26.0954L194.677 25.6452ZM186.557 24.481L186.299 23.9265L186.296 23.9283L186.292 23.9301L186.557 24.481ZM185.687 27.8009L185.18 28.1178L185.192 28.139L185.206 28.1589L185.687 27.8009ZM187.261 28.922L187.028 29.4881L187.037 29.4918L187.045 29.4953L187.261 28.922ZM190.658 29.8705L190.54 30.474L190.541 30.4743L190.542 30.4745L190.658 29.8705ZM195.547 31.5089L195.268 32.0521L195.27 32.0534L195.273 32.0548L195.547 31.5089ZM198.157 33.8372L197.653 34.1591L197.655 34.1629L197.658 34.1667L198.157 33.8372ZM197.909 40.4339L197.419 40.0891L197.415 40.0939L197.411 40.0987L197.909 40.4339ZM194.926 42.9778L194.679 42.4179L194.677 42.4189L194.675 42.42L194.926 42.9778ZM190.037 43.3104C188.164 43.3104 186.435 43.018 184.847 42.4395L184.456 43.6022C186.182 44.231 188.044 44.5422 190.037 44.5422V43.3104ZM184.858 42.4437C183.282 41.832 182.093 41.0823 181.258 40.2139L180.421 41.0851C181.41 42.1138 182.762 42.945 184.445 43.598L184.858 42.4437ZM181.272 40.2282C180.962 39.8847 180.854 39.5392 180.89 39.1587L179.712 39.036C179.639 39.8052 179.889 40.4944 180.408 41.0708L181.272 40.2282ZM180.887 39.1844C180.948 38.7422 181.142 38.3972 181.489 38.1207L180.77 37.1421C180.179 37.6128 179.82 38.2452 179.715 39.0102L180.887 39.1844ZM181.5 38.1123C181.967 37.723 182.343 37.6282 182.653 37.6793L182.838 36.4624C182.099 36.3411 181.397 36.6199 180.76 37.1505L181.5 38.1123ZM182.687 37.6837C183.093 37.726 183.431 37.8997 183.722 38.2242L184.587 37.3835C184.104 36.8457 183.503 36.5307 182.805 36.458L182.687 37.6837ZM183.713 38.2146C184.26 38.8501 185.088 39.4105 186.144 39.9157L186.638 38.7964C185.651 38.3243 184.988 37.8498 184.595 37.3931L183.713 38.2146ZM186.162 39.9237C187.292 40.4189 188.531 40.6618 189.871 40.6618V39.4299C188.671 39.4299 187.59 39.2129 186.621 38.7884L186.162 39.9237ZM189.871 40.6618C191.521 40.6618 192.868 40.3837 193.834 39.747L193.2 38.7063C192.509 39.162 191.425 39.4299 189.871 39.4299V40.6618ZM193.826 39.7518C194.811 39.1238 195.399 38.2493 195.434 37.1346L194.251 37.0934C194.232 37.7033 193.935 38.2373 193.208 38.7015L193.826 39.7518ZM195.434 37.1346C195.47 36.0193 194.935 35.0953 193.991 34.3753L193.291 35.3687C194.005 35.9133 194.271 36.484 194.251 37.0934L195.434 37.1346ZM193.999 34.3813C193.077 33.6533 191.475 33.1175 189.313 32.7136L189.104 33.926C191.25 34.327 192.604 34.826 193.284 35.3626L193.999 34.3813ZM189.323 32.7156C186.574 32.1489 184.663 31.3143 183.507 30.268L182.73 31.1976C184.115 32.4509 186.264 33.341 189.094 33.924L189.323 32.7156ZM183.512 30.2725C182.39 29.2345 181.846 27.9912 181.846 26.5075H180.662C180.662 28.358 181.362 29.9316 182.725 31.1932L183.512 30.2725ZM181.846 26.5075C181.846 25.1712 182.22 24.119 182.935 23.3L182.059 22.4714C181.117 23.5496 180.662 24.9118 180.662 26.5075H181.846ZM182.941 23.2932C183.695 22.4039 184.668 21.7417 185.878 21.313L185.496 20.1469C184.11 20.6379 182.956 21.4129 182.053 22.4782L182.941 23.2932ZM185.888 21.3092C187.121 20.8452 188.406 20.6129 189.747 20.6129V19.381C188.271 19.381 186.85 19.6373 185.486 20.1507L185.888 21.3092ZM189.747 20.6129C191.508 20.6129 193.044 20.9044 194.369 21.4719L194.82 20.3329C193.327 19.6932 191.632 19.381 189.747 19.381V20.6129ZM194.369 21.4719C195.7 22.0426 196.733 22.8193 197.491 23.791L198.409 23.0152C197.51 21.8598 196.305 20.9694 194.82 20.3329L194.369 21.4719ZM197.505 23.8088C197.809 24.1707 197.915 24.5068 197.898 24.8349L199.079 24.9032C199.117 24.1966 198.864 23.5553 198.395 22.9975L197.505 23.8088ZM197.898 24.8328C197.883 25.1084 197.758 25.3695 197.429 25.6267L198.139 26.6122C198.693 26.1795 199.04 25.607 199.079 24.9053L197.898 24.8328ZM197.449 25.6119C197.156 25.8218 196.795 25.9059 196.316 25.8153L196.104 27.0272C196.84 27.1665 197.529 27.0494 198.119 26.627L197.449 25.6119ZM196.316 25.8153C195.809 25.7194 195.405 25.5095 195.081 25.1949L194.273 26.0954C194.778 26.5856 195.395 26.8932 196.104 27.0272L196.316 25.8153ZM195.087 25.2008C194.34 24.454 193.516 23.9249 192.615 23.6341L192.264 24.8105C192.966 25.0371 193.634 25.4565 194.267 26.0895L195.087 25.2008ZM192.615 23.6341C191.745 23.3531 190.759 23.2183 189.664 23.2183V24.4502C190.669 24.4502 191.532 24.5741 192.264 24.8105L192.615 23.6341ZM189.664 23.2183C188.384 23.2183 187.255 23.4454 186.299 23.9265L186.815 25.0355C187.572 24.6543 188.514 24.4502 189.664 24.4502V23.2183ZM186.292 23.9301C185.811 24.1807 185.413 24.509 185.136 24.9316C184.856 25.3592 184.722 25.8492 184.722 26.3781H185.906C185.906 26.0736 185.98 25.8304 186.114 25.6257C186.251 25.416 186.475 25.2125 186.822 25.0319L186.292 23.9301ZM184.722 26.3781C184.722 27.0038 184.874 27.5881 185.18 28.1178L186.195 27.4841C186.003 27.1515 185.906 26.7872 185.906 26.3781H184.722ZM185.206 28.1589C185.576 28.6995 186.222 29.1284 187.028 29.4881L187.495 28.3558C186.754 28.0256 186.35 27.7072 186.169 27.443L185.206 28.1589ZM187.045 29.4953C187.866 29.831 189.038 30.1556 190.54 30.474L190.777 29.267C189.296 28.9531 188.203 28.6453 187.478 28.3486L187.045 29.4953ZM190.542 30.4745C192.585 30.8998 194.152 31.4308 195.268 32.0521L195.826 30.9658C194.567 30.2648 192.874 29.7036 190.775 29.2665L190.542 30.4745ZM195.273 32.0548C196.427 32.6824 197.201 33.3916 197.653 34.1591L198.661 33.5153C198.064 32.5007 197.098 31.6576 195.821 30.9631L195.273 32.0548ZM197.658 34.1667C198.115 34.9184 198.352 35.8071 198.352 36.8553H199.536C199.536 35.6041 199.25 34.4806 198.657 33.5077L197.658 34.1667ZM198.352 36.8553C198.352 38.0586 198.04 39.1306 197.419 40.0891L198.399 40.7787C199.157 39.6102 199.536 38.2965 199.536 36.8553H198.352ZM197.411 40.0987C196.821 41.0463 195.923 41.8245 194.679 42.4179L195.172 43.5376C196.579 42.8663 197.669 41.9486 198.405 40.7691L197.411 40.0987ZM194.675 42.42C193.478 43.0026 191.941 43.3104 190.037 43.3104V44.5422C192.055 44.5422 193.777 44.2176 195.177 43.5356L194.675 42.42ZM207.146 42.4173L206.856 42.9541L206.861 42.9568L206.865 42.9595L207.146 42.4173ZM202.962 38.1919L202.448 38.4975L202.45 38.5026L202.453 38.5075L202.962 38.1919ZM202.879 25.7745L202.362 25.4754L202.36 25.4769L202.359 25.4784L202.879 25.7745ZM206.856 21.5491L207.151 22.0834L207.153 22.0816L207.157 22.0796L206.856 21.5491ZM218.207 21.506L217.894 22.0283L217.897 22.0304L217.9 22.0325L218.207 21.506ZM221.729 25.602L221.194 25.8665L221.196 25.8721L221.2 25.8775L221.729 25.602ZM222.433 32.9749L222.834 33.4275L222.843 33.4191L222.851 33.4105L222.433 32.9749ZM204.37 33.4923H203.778V34.1082H204.37V33.4923ZM204.37 30.043V29.427H203.778V30.043H204.37ZM220.942 30.043L221.275 30.5516L222.858 29.427H220.942V30.043ZM219.243 31.2502L218.651 31.2625L218.673 32.401L219.577 31.7589L219.243 31.2502ZM218.415 27.4129L217.88 27.6771L217.881 27.68L217.882 27.6827L218.415 27.4129ZM208.596 24.7828L208.288 24.2569L208.285 24.2587L208.282 24.2605L208.596 24.7828ZM206.069 27.7578L206.6 28.0281L206.601 28.0256L206.603 28.0232L206.069 27.7578ZM215.887 39.7441L216.079 40.3265L216.085 40.3248L216.09 40.3229L215.887 39.7441ZM218.083 38.5799L217.733 38.0832L217.73 38.0852L217.728 38.0872L218.083 38.5799ZM219.409 38.1057V38.7216H219.425L219.442 38.7206L219.409 38.1057ZM220.693 38.5368L221.085 38.075L221.08 38.0708L221.075 38.0666L220.693 38.5368ZM220.776 41.2962L220.416 40.8069L220.411 40.8104L220.408 40.8138L220.776 41.2962ZM217.255 43.1933L217.068 42.6091L217.065 42.6095L217.064 42.6102L217.255 43.1933ZM213.277 43.3104C211.07 43.3104 209.125 42.8269 207.427 41.875L206.865 42.9595C208.757 44.0197 210.899 44.5422 213.277 44.5422V43.3104ZM207.436 41.8804C205.756 40.8974 204.438 39.5645 203.469 37.8763L202.453 38.5075C203.529 40.3835 205 41.8676 206.856 42.9541L207.436 41.8804ZM203.475 37.8863C202.538 36.179 202.062 34.217 202.062 31.9832H200.878C200.878 34.4059 201.397 36.583 202.448 38.4975L203.475 37.8863ZM202.062 31.9832C202.062 29.7131 202.513 27.7485 203.397 26.0706L202.359 25.4784C201.366 27.3647 200.878 29.5393 200.878 31.9832H202.062ZM203.396 26.0736C204.312 24.3582 205.561 23.0322 207.151 22.0834L206.561 21.0149C204.781 22.0782 203.378 23.5691 202.362 25.4754L203.396 26.0736ZM207.157 22.0796C208.74 21.107 210.567 20.6129 212.656 20.6129V19.381C210.381 19.381 208.341 19.9217 206.555 21.0187L207.157 22.0796ZM212.656 20.6129C214.719 20.6129 216.457 21.0938 217.894 22.0283L218.521 20.9837C216.864 19.9062 214.9 19.381 212.656 19.381V20.6129ZM217.9 22.0325C219.345 22.9454 220.441 24.2181 221.194 25.8665L222.263 25.3375C221.414 23.4791 220.163 22.0213 218.514 20.9795L217.9 22.0325ZM221.2 25.8775C221.98 27.5027 222.38 29.4031 222.38 31.5952H223.564C223.564 29.2457 223.134 27.1506 222.258 25.3266L221.2 25.8775ZM222.38 31.5952C222.38 31.9841 222.258 32.2854 222.014 32.5393L222.851 33.4105C223.326 32.917 223.564 32.2986 223.564 31.5952H222.38ZM222.032 32.5223C221.796 32.7483 221.49 32.8763 221.066 32.8763V34.1082C221.747 34.1082 222.351 33.8913 222.834 33.4275L222.032 32.5223ZM221.066 32.8763H204.37V34.1082H221.066V32.8763ZM204.962 33.4923V30.043H203.778V33.4923H204.962ZM204.37 30.6589H220.942V29.427H204.37V30.6589ZM220.608 29.5343L218.909 30.7416L219.577 31.7589L221.275 30.5516L220.608 29.5343ZM219.835 31.2379C219.805 29.725 219.514 28.3558 218.946 27.1431L217.882 27.6827C218.364 28.712 218.625 29.9011 218.651 31.2625L219.835 31.2379ZM218.948 27.1487C218.38 25.9031 217.565 24.9085 216.502 24.1818L215.852 25.2114C216.723 25.8069 217.399 26.6233 217.88 27.6771L218.948 27.1487ZM216.502 24.1818C215.421 23.4428 214.13 23.089 212.656 23.089V24.3209C213.944 24.3209 215 24.6281 215.852 25.2114L216.502 24.1818ZM212.656 23.089C210.993 23.089 209.529 23.4693 208.288 24.2569L208.904 25.3087C209.928 24.6593 211.169 24.3209 212.656 24.3209V23.089ZM208.282 24.2605C207.079 25.0434 206.161 26.1258 205.535 27.4925L206.603 28.0232C207.136 26.8604 207.904 25.9595 208.91 25.3052L208.282 24.2605ZM205.537 27.4876C204.912 28.8195 204.607 30.3226 204.607 31.9832H205.791C205.791 30.4819 206.065 29.1682 206.6 28.0281L205.537 27.4876ZM204.607 31.9832C204.607 33.661 204.974 35.1785 205.723 36.5181L206.746 35.899C206.114 34.7668 205.791 33.4671 205.791 31.9832H204.607ZM205.723 36.5181C206.467 37.85 207.496 38.9045 208.801 39.6759L209.385 38.6049C208.26 37.9391 207.383 37.0391 206.746 35.899L205.723 36.5181ZM208.801 39.6759C210.116 40.4536 211.613 40.8343 213.277 40.8343V39.6024C211.792 39.6024 210.501 39.2644 209.385 38.6049L208.801 39.6759ZM213.277 40.8343C214.204 40.8343 215.139 40.6628 216.079 40.3265L215.694 39.1616C214.867 39.4577 214.062 39.6024 213.277 39.6024V40.8343ZM216.09 40.3229C217.036 39.9649 217.824 39.5516 218.438 39.0727L217.728 38.0872C217.237 38.4705 216.562 38.8333 215.685 39.1652L216.09 40.3229ZM218.433 39.0766C218.755 38.8302 219.077 38.7216 219.409 38.7216V37.4897C218.802 37.4897 218.238 37.6973 217.733 38.0832L218.433 39.0766ZM219.442 38.7206C219.797 38.7 220.074 38.799 220.311 39.007L221.075 38.0666C220.594 37.6423 220.014 37.4537 219.376 37.4907L219.442 38.7206ZM220.301 38.9986C220.685 39.3505 220.83 39.681 220.848 39.9938L222.029 39.9255C221.99 39.2035 221.64 38.5855 221.085 38.075L220.301 38.9986ZM220.848 39.9938C220.862 40.2675 220.764 40.5305 220.416 40.8069L221.136 41.7855C221.726 41.3146 222.07 40.6866 222.029 39.9255L220.848 39.9938ZM220.408 40.8138C219.534 41.5361 218.425 42.1379 217.068 42.6091L217.442 43.7776C218.901 43.2714 220.139 42.6086 221.144 41.7786L220.408 40.8138ZM217.064 42.6102C215.735 43.0802 214.474 43.3104 213.277 43.3104V44.5422C214.621 44.5422 216.012 44.2837 217.445 43.7765L217.064 42.6102Z" fill="white"/>
</g>
<g clip-path="url(#clip0_106_693)">
<path d="M48.72 0H9.28C4.1548 0 0 4.1548 0 9.28V48.72C0 53.8452 4.1548 58 9.28 58H48.72C53.8452 58 58 53.8452 58 48.72V9.28C58 4.1548 53.8452 0 48.72 0Z" fill="#0A45FB"/>
<path d="M6.24609 34.2051C6.24609 40.3652 11.2398 45.359 17.3999 45.359L40.4512 45.5077C46.6113 45.5077 51.6051 40.5139 51.6051 34.3538C51.6051 28.1937 46.6113 23.2 40.4512 23.2L17.3999 23.0513C11.2398 23.0513 6.24609 28.045 6.24609 34.2051Z" fill="white"/>
<circle cx="41.2962" cy="34.22" r="5.22" fill="#002BFE"/>
<circle cx="16.8196" cy="34.22" r="5.22" fill="#002BFE"/>
<path d="M14.2676 17.5161C17.1444 21.3673 17.6702 25.6941 17.5736 27.3761H20.8796C20.9762 25.6941 20.4736 21.4021 17.8056 17.5161H14.2676Z" fill="white"/>
<circle cx="15.4856" cy="16.53" r="3.886" fill="white"/>
<path d="M43.8594 17.5161C40.9826 21.3673 40.4567 25.6941 40.5534 27.3761H37.2474C37.1507 25.6941 37.6534 21.4021 40.3214 17.5161H43.8594Z" fill="white"/>
<circle cx="3.886" cy="3.886" r="3.886" transform="matrix(-1 0 0 1 46.5273 12.644)" fill="white"/>
<path d="M29.0659 40.8095C28.171 40.8321 27.2922 40.5673 26.5569 40.0535C26.3677 39.9049 25.982 39.5635 25.7193 39.2704C25.5928 39.1292 25.4652 38.9805 25.3119 38.8826C25.1454 38.7905 24.9582 38.7428 24.7682 38.7442C24.5782 38.7455 24.3916 38.7959 24.2264 38.8904C24.0613 38.9848 23.9229 39.1204 23.8245 39.284C23.7262 39.4476 23.6712 39.6338 23.6647 39.8249C23.6582 40.016 23.7006 40.2055 23.7876 40.3755C23.8747 40.5454 23.946 40.6834 24.0869 40.8095C24.5568 41.298 25.4563 41.9501 25.8985 42.2215C26.8637 42.7829 27.9647 43.0642 29.0792 43.0339C30.1937 43.0037 31.278 42.6632 32.2117 42.0502C32.7167 41.7187 33.4371 41.1558 33.7504 40.8095C33.907 40.6363 33.9679 40.5323 34.0793 40.3672C34.1663 40.1972 34.2261 40.016 34.2196 39.8249C34.2131 39.6338 34.1581 39.4476 34.0597 39.284C33.9614 39.1204 33.823 38.9848 33.6578 38.8904C33.4926 38.7959 33.3061 38.7455 33.1161 38.7442C32.9261 38.7428 32.7389 38.7905 32.5724 38.8826C32.4191 38.9805 32.2781 39.1066 32.165 39.2704C31.9962 39.4848 31.777 39.7211 31.5341 39.9278C30.8254 40.478 29.9609 40.7868 29.0659 40.8095Z" fill="#002BFE"/>
</g>
<defs>
<clipPath id="clip0_106_693">
<rect width="58" height="58" fill="white"/>
</clipPath>
</defs>
</svg>
