<svg viewBox="0 0 147 36" fill="none" xmlns="http://www.w3.org/2000/svg">
<path d="M12.1561 34.7105C11.3 34.7105 10.6371 34.2362 10.1676 33.2877L1.38471 14.0149C1.16372 13.5262 1.13614 13.0519 1.30186 12.592C1.49515 12.1033 1.85428 11.7297 2.379 11.471C2.84856 11.2123 3.31801 11.1692 3.78757 11.3417C4.28471 11.5141 4.65757 11.8447 4.90614 12.3333L13.109 30.7438H11.1204L19.2404 12.3333C19.489 11.8447 19.8619 11.5141 20.359 11.3417C20.8837 11.1692 21.4086 11.2123 21.9333 11.471C22.4304 11.701 22.7619 12.0602 22.9276 12.5489C23.0933 13.0376 23.0657 13.5262 22.8447 14.0149L14.0619 33.2877C13.6476 34.2362 13.0123 34.7105 12.1561 34.7105ZM34.168 34.9261C32.1518 34.9261 30.3427 34.4087 28.7408 33.3739C27.139 32.3104 25.8684 30.8876 24.9294 29.1054C24.018 27.2946 23.5623 25.2537 23.5623 22.983C23.5623 20.7122 24.0594 18.6714 25.0537 16.8605C26.0756 15.0496 27.4427 13.6268 29.1551 12.592C30.8951 11.5285 32.8423 10.9967 34.9965 10.9967C37.1508 10.9967 39.0841 11.5285 40.7965 12.592C42.509 13.6268 43.8623 15.0496 44.8565 16.8605C45.8784 18.6714 46.3894 20.7122 46.3894 22.983H44.7737C44.7737 25.2537 44.3041 27.2946 43.3651 29.1054C42.4537 30.8876 41.197 32.3104 39.5951 33.3739C37.9932 34.4087 36.1841 34.9261 34.168 34.9261ZM34.9965 31.0457C36.4051 31.0457 37.6618 30.7007 38.7665 30.0109C39.8713 29.2923 40.7413 28.3294 41.3765 27.1221C42.0118 25.8862 42.3294 24.5064 42.3294 22.983C42.3294 21.4308 42.0118 20.0511 41.3765 18.8438C40.7413 17.6079 39.8713 16.6449 38.7665 15.9551C37.6618 15.2365 36.4051 14.8772 34.9965 14.8772C33.6156 14.8772 32.359 15.2365 31.2265 15.9551C30.1218 16.6449 29.238 17.6079 28.5751 18.8438C27.9398 20.0511 27.6223 21.4308 27.6223 22.983C27.6223 24.5064 27.9398 25.8862 28.5751 27.1221C29.238 28.3294 30.1218 29.2923 31.2265 30.0109C32.359 30.7007 33.6156 31.0457 34.9965 31.0457ZM44.2765 34.7967C43.669 34.7967 43.158 34.5956 42.7437 34.1931C42.357 33.762 42.1637 33.2302 42.1637 32.5978V26.0011L42.9508 21.4308L46.3894 22.983V32.5978C46.3894 33.2302 46.1823 33.762 45.768 34.1931C45.3813 34.5956 44.8841 34.7967 44.2765 34.7967ZM62.4142 34.9261C60.2599 34.9261 58.3265 34.4087 56.6142 33.3739C54.9018 32.3104 53.5485 30.8732 52.5542 29.0623C51.5599 27.2515 51.0489 25.2106 51.0213 22.9399V3.27899C51.0213 2.61784 51.2146 2.08616 51.6013 1.6837C52.0156 1.28124 52.5265 1.08008 53.1342 1.08008C53.7694 1.08008 54.2804 1.28124 54.6671 1.6837C55.0537 2.08616 55.2471 2.61784 55.2471 3.27899V14.9203C56.2137 13.713 57.3737 12.7645 58.7271 12.0746C60.1079 11.3561 61.6132 10.9967 63.2428 10.9967C65.2589 10.9967 67.0679 11.5285 68.6699 12.592C70.2718 13.6268 71.5285 15.0496 72.4399 16.8605C73.3789 18.6427 73.8485 20.6691 73.8485 22.9399C73.8485 25.2106 73.3375 27.2515 72.3156 29.0623C71.3214 30.8732 69.9679 32.3104 68.2556 33.3739C66.5432 34.4087 64.5961 34.9261 62.4142 34.9261ZM62.4142 31.0457C63.8228 31.0457 65.0794 30.7007 66.1842 30.0109C67.2889 29.2923 68.1589 28.3149 68.7942 27.079C69.4571 25.843 69.7885 24.4633 69.7885 22.9399C69.7885 21.3877 69.4571 20.008 68.7942 18.8007C68.1589 17.5935 67.2889 16.6449 66.1842 15.9551C65.0794 15.2365 63.8228 14.8772 62.4142 14.8772C61.0332 14.8772 59.7765 15.2365 58.6442 15.9551C57.5394 16.6449 56.6694 17.5935 56.0342 18.8007C55.3989 20.008 55.0814 21.3877 55.0814 22.9399C55.0814 24.4633 55.3989 25.843 56.0342 27.079C56.6694 28.3149 57.5394 29.2923 58.6442 30.0109C59.7765 30.7007 61.0332 31.0457 62.4142 31.0457ZM87.9394 34.9261C85.9231 34.9261 84.1141 34.4087 82.5123 33.3739C80.9103 32.3104 79.6399 30.8876 78.7008 29.1054C77.7894 27.2946 77.3337 25.2537 77.3337 22.983C77.3337 20.7122 77.8308 18.6714 78.8251 16.8605C79.847 15.0496 81.2141 13.6268 82.9266 12.592C84.6666 11.5285 86.6137 10.9967 88.768 10.9967C90.9223 10.9967 92.8556 11.5285 94.568 12.592C96.2803 13.6268 97.6337 15.0496 98.628 16.8605C99.6499 18.6714 100.161 20.7122 100.161 22.983H98.5451C98.5451 25.2537 98.0756 27.2946 97.1366 29.1054C96.2251 30.8876 94.9684 32.3104 93.3666 33.3739C91.7646 34.4087 89.9556 34.9261 87.9394 34.9261ZM88.768 31.0457C90.1766 31.0457 91.4331 30.7007 92.538 30.0109C93.6427 29.2923 94.5127 28.3294 95.148 27.1221C95.7831 25.8862 96.1008 24.5064 96.1008 22.983C96.1008 21.4308 95.7831 20.0511 95.148 18.8438C94.5127 17.6079 93.6427 16.6449 92.538 15.9551C91.4331 15.2365 90.1766 14.8772 88.768 14.8772C87.387 14.8772 86.1303 15.2365 84.998 15.9551C83.8931 16.6449 83.0094 17.6079 82.3466 18.8438C81.7113 20.0511 81.3937 21.4308 81.3937 22.983C81.3937 24.5064 81.7113 25.8862 82.3466 27.1221C83.0094 28.3294 83.8931 29.2923 84.998 30.0109C86.1303 30.7007 87.387 31.0457 88.768 31.0457ZM98.048 34.7967C97.4403 34.7967 96.9294 34.5956 96.5151 34.1931C96.1284 33.762 95.9351 33.2302 95.9351 32.5978V26.0011L96.7223 21.4308L100.161 22.983V32.5978C100.161 33.2302 99.9537 33.762 99.5394 34.1931C99.1527 34.5956 98.6556 34.7967 98.048 34.7967ZM113.037 34.9261C111.104 34.9261 109.308 34.6243 107.651 34.0207C106.022 33.3883 104.751 32.5978 103.84 31.6493C103.426 31.1894 103.246 30.672 103.301 30.0971C103.384 29.4935 103.66 29.0048 104.13 28.6312C104.682 28.1713 105.221 27.9844 105.746 28.0707C106.298 28.1282 106.767 28.3725 107.154 28.8036C107.624 29.3497 108.369 29.8671 109.391 30.3558C110.441 30.8157 111.601 31.0457 112.871 31.0457C114.473 31.0457 115.688 30.7726 116.517 30.2265C117.373 29.6804 117.815 28.9761 117.843 28.1138C117.87 27.2515 117.47 26.5041 116.641 25.8717C115.84 25.2394 114.363 24.722 112.208 24.3196C109.419 23.7447 107.389 22.8823 106.118 21.7326C104.876 20.5829 104.254 19.1744 104.254 17.5073C104.254 16.0413 104.668 14.8341 105.497 13.8855C106.326 12.9083 107.389 12.1896 108.687 11.7297C109.985 11.241 111.338 10.9967 112.747 10.9967C114.57 10.9967 116.186 11.2986 117.594 11.9022C119.003 12.5058 120.121 13.3394 120.95 14.4029C121.337 14.8628 121.516 15.3515 121.489 15.8688C121.461 16.3575 121.226 16.7743 120.784 17.1192C120.343 17.4354 119.817 17.536 119.21 17.421C118.602 17.3061 118.091 17.0474 117.677 16.6449C116.987 15.9551 116.241 15.4808 115.44 15.2221C114.639 14.9634 113.714 14.8341 112.664 14.8341C111.449 14.8341 110.413 15.0496 109.557 15.4808C108.728 15.912 108.314 16.5443 108.314 17.3779C108.314 17.8953 108.438 18.3696 108.687 18.8007C108.963 19.2032 109.488 19.5768 110.261 19.9217C111.035 20.238 112.167 20.5541 113.658 20.8703C115.73 21.3015 117.359 21.8476 118.547 22.5087C119.763 23.1699 120.633 23.9459 121.157 24.837C121.681 25.6993 121.944 26.7054 121.944 27.8551C121.944 29.1773 121.599 30.3702 120.909 31.4337C120.246 32.4972 119.251 33.3452 117.926 33.9775C116.627 34.6099 114.998 34.9261 113.037 34.9261ZM136.277 34.9261C133.985 34.9261 131.94 34.4231 130.146 33.417C128.377 32.3823 126.983 30.9738 125.962 29.1917C124.967 27.3808 124.47 25.3112 124.47 22.983C124.47 20.626 124.939 18.5564 125.879 16.7743C126.845 14.9634 128.17 13.555 129.856 12.5489C131.54 11.5141 133.473 10.9967 135.656 10.9967C137.81 10.9967 139.66 11.4997 141.207 12.5058C142.753 13.4831 143.927 14.8485 144.729 16.6018C145.557 18.3265 145.972 20.3242 145.972 22.5949C145.972 23.141 145.792 23.601 145.433 23.9746C145.073 24.3196 144.617 24.492 144.066 24.492H127.37V21.0428H143.942L142.243 22.25C142.215 20.8128 141.939 19.5337 141.414 18.4127C140.889 17.263 140.143 16.3575 139.177 15.6964C138.21 15.0352 137.036 14.7047 135.656 14.7047C134.082 14.7047 132.727 15.0641 131.596 15.7826C130.49 16.5012 129.649 17.4928 129.069 18.7576C128.489 19.9936 128.199 21.4021 128.199 22.983C128.199 24.5639 128.543 25.9724 129.234 27.2083C129.925 28.4443 130.877 29.4217 132.093 30.1402C133.307 30.8588 134.703 31.2181 136.277 31.2181C137.133 31.2181 138.003 31.0601 138.887 30.7438C139.799 30.3989 140.53 30.0109 141.083 29.5797C141.497 29.2635 141.939 29.1054 142.409 29.1054C142.906 29.0767 143.333 29.2204 143.693 29.5366C144.162 29.9678 144.41 30.442 144.439 30.9594C144.466 31.4768 144.245 31.9224 143.776 32.296C142.836 33.0721 141.663 33.7044 140.254 34.1931C138.873 34.6818 137.547 34.9261 136.277 34.9261Z" />
<mask id="mask0_106_685" style="mask-type:luminance" maskUnits="userSpaceOnUse" x="0" y="0" width="147" height="36">
<path d="M0.526367 0.384277H146.592V35.6162H0.526367V0.384277Z" />
</mask>
<g mask="url(#mask0_106_685)">
<path d="M10.1676 33.2879L9.63286 33.5519L9.637 33.561L9.6415 33.57L10.1676 33.2879ZM1.38479 14.0151L0.849293 14.2773L0.849648 14.2782L0.850004 14.2791L1.38479 14.0151ZM1.30193 12.5923L0.754718 12.3577L0.751167 12.3668L0.747734 12.3759L1.30193 12.5923ZM2.37907 11.4712L2.63238 12.0279L2.64433 12.022L2.65593 12.0156L2.37907 11.4712ZM3.78764 11.3419L3.59068 11.9227L3.59553 11.9244L3.60051 11.9262L3.78764 11.3419ZM4.90622 12.3336L5.44313 12.0745L5.43662 12.0597L5.42928 12.0453L4.90622 12.3336ZM13.1091 30.7441V31.36H14.0359L13.646 30.485L13.1091 30.7441ZM11.1205 30.7441L10.5826 30.4871L10.1976 31.36H11.1205V30.7441ZM19.2405 12.3336L18.7174 12.0453L18.7096 12.0608L18.7026 12.0766L19.2405 12.3336ZM20.3591 11.3419L20.1808 10.7545L20.1764 10.756L20.1719 10.7576L20.3591 11.3419ZM21.9334 11.4712L21.6801 12.0279L21.6864 12.031L21.693 12.0341L21.9334 11.4712ZM22.8448 14.0151L23.3796 14.2791L23.3799 14.2782L23.3803 14.2773L22.8448 14.0151ZM14.0619 33.2879L13.5271 33.0239L13.5251 33.0285L13.5231 33.033L14.0619 33.2879ZM12.1562 34.0948C11.5699 34.0948 11.0861 33.7983 10.6938 33.0058L9.6415 33.57C10.1884 34.6746 11.0302 35.3267 12.1562 35.3267V34.0948ZM10.7024 33.0239L1.91957 13.7511L0.850004 14.2791L9.63286 33.5519L10.7024 33.0239ZM1.92028 13.7528C1.75989 13.398 1.7522 13.0966 1.85613 12.8086L0.747734 12.3759C0.520114 13.0079 0.567816 13.6549 0.849293 14.2773L1.92028 13.7528ZM1.84926 12.8268C1.9784 12.5002 2.22022 12.2311 2.63238 12.0279L2.12577 10.9144C1.48836 11.2287 1.01217 11.707 0.754718 12.3577L1.84926 12.8268ZM2.65593 12.0156C2.99032 11.8313 3.28837 11.8117 3.59068 11.9227L3.98461 10.7611C3.34779 10.5271 2.70683 10.5938 2.10221 10.9269L2.65593 12.0156ZM3.60051 11.9262C3.95099 12.0479 4.20465 12.271 4.38315 12.6217L5.42928 12.0453C5.11064 11.4188 4.61847 10.9808 3.97478 10.7576L3.60051 11.9262ZM4.3693 12.5926L12.5722 31.0031L13.646 30.485L5.44313 12.0745L4.3693 12.5926ZM13.1091 30.1281H11.1205V31.36H13.1091V30.1281ZM11.6584 31.001L19.7784 12.5905L18.7026 12.0766L10.5826 30.4871L11.6584 31.001ZM19.7637 12.6217C19.9422 12.271 20.1958 12.0479 20.5463 11.9262L20.1721 10.7576C19.5283 10.9808 19.0362 11.4189 18.7176 12.0454L19.7637 12.6217ZM20.5375 11.9293C20.9114 11.8063 21.2822 11.8317 21.6802 12.0278L22.1868 10.9146C21.5353 10.5934 20.8565 10.5325 20.1808 10.7545L20.5375 11.9293ZM21.6931 12.0341C22.0569 12.2024 22.2635 12.4409 22.3697 12.7541L23.4859 12.3442C23.2606 11.6802 22.8043 11.2 22.1739 10.9084L21.6931 12.0341ZM22.3697 12.7541C22.4812 13.083 22.4672 13.4039 22.3094 13.7528L23.3803 14.2773C23.6645 13.649 23.7058 12.9925 23.4859 12.3442L22.3697 12.7541ZM22.3101 13.7511L13.5271 33.0239L14.5968 33.5519L23.3797 14.2791L22.3101 13.7511ZM13.5232 33.033C13.3472 33.4362 13.1429 33.6955 12.9299 33.8546C12.7225 34.0094 12.4728 34.0948 12.1562 34.0948V35.3267C12.6957 35.3267 13.192 35.1749 13.6199 34.8555C14.042 34.5402 14.3626 34.0881 14.6009 33.5428L13.5232 33.033ZM28.741 33.3741L28.4227 33.8934L28.4258 33.8955L28.4289 33.8974L28.741 33.3741ZM24.9296 29.1057L24.4053 29.3915L24.4079 29.3966L24.4107 29.4018L24.9296 29.1057ZM25.0539 16.8607L24.5436 16.5488L24.5418 16.5519L24.54 16.5551L25.0539 16.8607ZM29.1553 12.5923L29.4525 13.1249L29.4538 13.1242L29.455 13.1233L29.1553 12.5923ZM40.7967 12.5923L40.4935 13.1212L40.4966 13.1231L40.4995 13.1249L40.7967 12.5923ZM44.8567 16.8607L44.3429 17.1664L44.3447 17.1694L44.3465 17.1726L44.8567 16.8607ZM46.3896 22.9832V23.5991H46.9814V22.9832H46.3896ZM44.7739 22.9832V22.3673H44.182V22.9832H44.7739ZM43.3653 29.1057L42.8445 28.8131L42.8437 28.8147L42.8428 28.8163L43.3653 29.1057ZM39.5953 33.3741L39.9074 33.8974L39.9105 33.8955L39.9136 33.8934L39.5953 33.3741ZM38.7667 30.0111L39.0713 30.5392L39.0759 30.5364L39.0804 30.5334L38.7667 30.0111ZM41.3767 27.1223L41.8959 27.4182L41.8972 27.4155L41.8986 27.4128L41.3767 27.1223ZM41.3767 18.8441L40.8549 19.1345L40.8563 19.1373L40.8577 19.14L41.3767 18.8441ZM38.7667 15.9553L38.4531 16.4776L38.4577 16.4806L38.4623 16.4834L38.7667 15.9553ZM31.2267 15.9553L31.5313 16.4834L31.5331 16.4823L31.5348 16.4812L31.2267 15.9553ZM28.5753 18.8441L28.0585 18.5439L28.0573 18.5461L28.0563 18.5482L28.5753 18.8441ZM28.5753 27.1223L28.0534 27.4128L28.0573 27.4204L28.0615 27.428L28.5753 27.1223ZM31.2267 30.0111L30.9131 30.5334L30.9204 30.5381L30.9277 30.5427L31.2267 30.0111ZM42.7439 34.1933L42.3112 34.6137L42.3251 34.6292L42.3401 34.6436L42.7439 34.1933ZM42.1639 26.0013L41.5814 25.8927L41.572 25.9465V26.0013H42.1639ZM42.951 21.431L43.1866 20.866L42.5004 20.5563L42.3685 21.3224L42.951 21.431ZM46.3896 22.9832H46.9814V22.579L46.6251 22.4181L46.3896 22.9832ZM34.1682 34.3104C32.2543 34.3104 30.5548 33.8208 29.0532 32.8508L28.4289 33.8974C30.1311 34.997 32.0496 35.5422 34.1682 35.5422V34.3104ZM29.0593 32.8549C27.5436 31.8486 26.3411 30.5035 25.4485 28.8095L24.4107 29.4018C25.3962 31.272 26.7346 32.7726 28.4227 33.8934L29.0593 32.8549ZM25.4538 28.8199C24.5915 27.1066 24.1543 25.1656 24.1543 22.9832H22.9706C22.9706 25.3423 23.4448 27.483 24.4053 29.3915L25.4538 28.8199ZM24.1543 22.9832C24.1543 20.8098 24.6291 18.876 25.5677 17.1664L24.54 16.5551C23.4901 18.4672 22.9706 20.615 22.9706 22.9832H24.1543ZM25.5643 17.1726C26.5356 15.4515 27.8299 14.1054 29.4525 13.1249L28.8581 12.0596C27.0559 13.1486 25.616 14.6483 24.5436 16.5488L25.5643 17.1726ZM29.455 13.1233C31.098 12.1191 32.9405 11.6129 34.9967 11.6129V10.381C32.7444 10.381 30.6927 10.9383 28.8556 12.0612L29.455 13.1233ZM34.9967 11.6129C37.0531 11.6129 38.8801 12.1192 40.4935 13.1212L41.1 12.0633C39.2886 10.9383 37.2489 10.381 34.9967 10.381V11.6129ZM40.4995 13.1249C42.1207 14.1045 43.3996 15.4485 44.3429 17.1664L45.3706 16.5551C44.3253 14.6512 42.8976 13.1496 41.094 12.0596L40.4995 13.1249ZM44.3465 17.1726C45.3107 18.8813 45.7978 20.8129 45.7978 22.9832H46.9814C46.9814 20.6119 46.4466 18.4619 45.3671 16.5488L44.3465 17.1726ZM46.3896 22.3673H44.7739V23.5991H46.3896V22.3673ZM44.182 22.9832C44.182 25.1626 43.7322 27.1011 42.8445 28.8131L43.8861 29.3982C44.8765 27.4884 45.3657 25.3453 45.3657 22.9832H44.182ZM42.8428 28.8163C41.9783 30.5068 40.7912 31.8496 39.277 32.8549L39.9136 33.8934C41.6033 32.7716 42.9295 31.2687 43.8878 29.395L42.8428 28.8163ZM39.2832 32.8508C37.7816 33.8208 36.082 34.3104 34.1682 34.3104V35.5422C36.2867 35.5422 38.2053 34.997 39.9074 33.8974L39.2832 32.8508ZM34.9967 31.6618C36.5023 31.6618 37.8661 31.2919 39.0713 30.5392L38.4623 29.483C37.458 30.11 36.3084 30.4299 34.9967 30.4299V31.6618ZM39.0804 30.5334C40.2725 29.7579 41.2127 28.7165 41.8959 27.4182L40.8577 26.8264C40.2704 27.9426 39.4705 28.827 38.4531 29.4888L39.0804 30.5334ZM41.8986 27.4128C42.5837 26.0799 42.9214 24.5989 42.9214 22.9832H41.7378C41.7378 24.4143 41.4403 25.6928 40.8549 26.8318L41.8986 27.4128ZM42.9214 22.9832C42.9214 21.341 42.5847 19.8573 41.8959 18.5482L40.8577 19.14C41.4394 20.2453 41.7378 21.5211 41.7378 22.9832H42.9214ZM41.8986 18.5536C41.2153 17.224 40.272 16.1769 39.0713 15.4272L38.4623 16.4834C39.471 17.1134 40.2678 17.9921 40.8549 19.1345L41.8986 18.5536ZM39.0804 15.433C37.874 14.6483 36.5069 14.2615 34.9967 14.2615V15.4933C36.3038 15.4933 37.45 15.8252 38.4531 16.4776L39.0804 15.433ZM34.9967 14.2615C33.5118 14.2615 32.1478 14.6494 30.9186 15.4294L31.5348 16.4812C32.5706 15.824 33.7198 15.4933 34.9967 15.4933V14.2615ZM30.9223 15.4272C29.7238 16.1754 28.7688 17.2193 28.0585 18.5439L29.0921 19.1443C29.7075 17.9968 30.5202 17.1149 31.5313 16.4834L30.9223 15.4272ZM28.0563 18.5482C27.3675 19.8573 27.0306 21.341 27.0306 22.9832H28.2143C28.2143 21.5211 28.5127 20.2453 29.0945 19.14L28.0563 18.5482ZM27.0306 22.9832C27.0306 24.5989 27.3683 26.0799 28.0534 27.4128L29.0972 26.8318C28.5119 25.6928 28.2143 24.4143 28.2143 22.9832H27.0306ZM28.0615 27.428C28.7716 28.7212 29.7232 29.7594 30.9131 30.5334L31.5404 29.4888C30.5208 28.8255 29.7048 27.938 29.0891 26.8167L28.0615 27.428ZM30.9277 30.5427C32.1557 31.2907 33.5164 31.6618 34.9967 31.6618V30.4299C33.7152 30.4299 32.5626 30.1112 31.5257 29.4795L30.9277 30.5427ZM44.2767 34.181C43.8072 34.181 43.444 34.0309 43.1478 33.7431L42.3401 34.6436C42.8723 35.1606 43.531 35.4129 44.2767 35.4129V34.181ZM43.1765 33.773C42.9 33.4647 42.7557 33.0867 42.7557 32.598H41.572C41.572 33.3741 41.8145 34.0597 42.3112 34.6137L43.1765 33.773ZM42.7557 32.598V26.0013H41.572V32.598H42.7557ZM42.7465 26.11L43.5336 21.5397L42.3685 21.3224L41.5814 25.8927L42.7465 26.11ZM42.7156 21.9961L46.1542 23.5483L46.6251 22.4181L43.1866 20.866L42.7156 21.9961ZM45.7978 22.9832V32.598H46.9814V22.9832H45.7978ZM45.7978 32.598C45.7978 33.0738 45.6485 33.4468 45.3497 33.7577L46.1867 34.6289C46.7164 34.0775 46.9814 33.3871 46.9814 32.598H45.7978ZM45.3497 33.7577C45.0868 34.0313 44.7465 34.181 44.2767 34.181V35.4129C45.0222 35.4129 45.6762 35.1601 46.1867 34.6289L45.3497 33.7577ZM56.6144 33.3741L56.311 33.9031L56.3141 33.905L56.3172 33.9068L56.6144 33.3741ZM51.0215 22.9401H50.4297V22.9478L51.0215 22.9401ZM51.6015 1.68392L51.1977 1.23367L51.1902 1.24094L51.183 1.24833L51.6015 1.68392ZM55.2473 14.9205H54.6554V16.6217L55.7019 15.3148L55.2473 14.9205ZM58.7273 12.0749L58.9876 12.628L58.9897 12.6269L58.9919 12.6258L58.7273 12.0749ZM68.6701 12.5923L68.3518 13.1115L68.3549 13.1136L68.358 13.1156L68.6701 12.5923ZM72.4401 16.8607L71.9159 17.1465L71.9185 17.1517L71.9212 17.1569L72.4401 16.8607ZM72.3158 29.0625L71.8054 28.7506L71.8037 28.7538L71.802 28.7569L72.3158 29.0625ZM68.2558 33.3741L68.5529 33.9068L68.556 33.905L68.5591 33.9031L68.2558 33.3741ZM66.1844 30.0111L66.4889 30.5392L66.4935 30.5364L66.4981 30.5334L66.1844 30.0111ZM68.7944 27.0792L68.2776 26.779L68.275 26.7838L68.2725 26.7887L68.7944 27.0792ZM68.7944 18.8009L68.2752 19.0968L68.2778 19.1017L68.2806 19.1066L68.7944 18.8009ZM66.1844 15.9553L65.8707 16.4776L65.8752 16.4806L65.8798 16.4834L66.1844 15.9553ZM58.6444 15.9553L58.9488 16.4834L58.9507 16.4823L58.9525 16.4812L58.6444 15.9553ZM58.6444 30.0111L58.3307 30.5334L58.3379 30.5381L58.3454 30.5427L58.6444 30.0111ZM62.4144 34.3104C60.355 34.3104 58.5258 33.817 56.9115 32.8415L56.3172 33.9068C58.1277 35.0008 60.1652 35.5422 62.4144 35.5422V34.3104ZM56.9177 32.8452C55.2932 31.8363 54.0122 30.4763 53.0682 28.7569L52.0406 29.3682C53.085 31.2706 54.5108 32.7849 56.311 33.9031L56.9177 32.8452ZM53.0682 28.7569C52.1282 27.0448 51.6398 25.1081 51.6133 22.9323L50.4297 22.9478C50.4585 25.3137 50.9921 27.4585 52.0406 29.3682L53.0682 28.7569ZM51.6133 22.9401V3.27921H50.4296V22.9401H51.6133ZM51.6133 3.27921C51.6133 2.75295 51.7622 2.38757 52.0199 2.11951L51.1829 1.24833C50.6673 1.78506 50.4296 2.48329 50.4296 3.27921H51.6133ZM52.0052 2.13417C52.3016 1.84641 52.6647 1.69624 53.1343 1.69624V0.464355C52.3886 0.464355 51.7299 0.716645 51.1976 1.23367L52.0052 2.13417ZM53.1343 1.69624C53.6399 1.69624 53.9909 1.85133 54.2486 2.11951L55.0856 1.24833C54.57 0.711718 53.8991 0.464355 53.1343 0.464355V1.69624ZM54.2486 2.11951C54.5063 2.38757 54.6553 2.75295 54.6553 3.27921H55.839C55.839 2.48329 55.6013 1.78493 55.0856 1.24833L54.2486 2.11951ZM54.6553 3.27921V14.9205H55.839V3.27921H54.6553ZM55.7019 15.3148C56.6153 14.174 57.7091 13.2798 58.9874 12.6281L58.4667 11.5217C57.0385 12.2498 55.8123 13.2525 54.7925 14.5262L55.7019 15.3148ZM58.9918 12.6258C60.286 11.9523 61.6999 11.6129 63.2429 11.6129V10.381C61.5267 10.381 59.9301 10.7602 58.4625 11.524L58.9918 12.6258ZM63.2429 11.6129C65.1534 11.6129 66.8509 12.115 68.3518 13.1115L68.9883 12.073C67.2853 10.9424 65.3646 10.381 63.2429 10.381V11.6129ZM68.358 13.1156C69.8662 14.0899 71.0512 15.4289 71.9157 17.1465L72.9643 16.5749C72.006 14.6708 70.6776 13.1642 68.9821 12.0689L68.358 13.1156ZM71.9211 17.1569C72.8068 18.838 73.2567 20.7605 73.2567 22.9401H74.4404C74.4404 20.5782 73.9512 18.4478 72.9589 16.5646L71.9211 17.1569ZM73.2567 22.9401C73.2567 25.1104 72.7697 27.042 71.8054 28.7506L72.826 29.3745C73.9056 27.4613 74.4404 25.3113 74.4404 22.9401H73.2567ZM71.802 28.7569C70.8579 30.4763 69.5768 31.8363 67.9523 32.8452L68.559 33.9031C70.3593 32.7849 71.785 31.2706 72.8295 29.3682L71.802 28.7569ZM67.9585 32.8415C66.3454 33.8163 64.5029 34.3104 62.4144 34.3104V35.5422C64.6898 35.5422 66.7412 35.0016 68.5528 33.9068L67.9585 32.8415ZM62.4143 31.6618C63.9198 31.6618 65.2835 31.2919 66.4887 30.5392L65.8797 29.483C64.8755 30.11 63.7259 30.4299 62.4143 30.4299V31.6618ZM66.4981 30.5334C67.6935 29.7558 68.6339 28.6973 69.3162 27.3697L68.2725 26.7887C67.6844 27.9332 66.8847 28.8292 65.8706 29.4888L66.4981 30.5334ZM69.3111 27.3794C70.0268 26.0447 70.3804 24.5604 70.3804 22.9401H69.1967C69.1967 24.3667 68.8874 25.6417 68.2775 26.779L69.3111 27.3794ZM70.3804 22.9401C70.3804 21.2934 70.0278 19.8062 69.3081 18.4953L68.2806 19.1066C68.8865 20.2102 69.1967 21.4824 69.1967 22.9401H70.3804ZM69.3133 18.5051C68.629 17.2047 67.686 16.1748 66.4887 15.4272L65.8797 16.4834C66.892 17.1155 67.689 17.9827 68.2751 19.0968L69.3133 18.5051ZM66.498 15.433C65.2914 14.6483 63.9244 14.2615 62.4143 14.2615V15.4933C63.7213 15.4933 64.8677 15.8252 65.8707 16.4776L66.498 15.433ZM62.4143 14.2615C60.9292 14.2615 59.5653 14.6494 58.3362 15.4294L58.9524 16.4812C59.988 15.824 61.1373 15.4933 62.4143 15.4933V14.2615ZM58.3397 15.4272C57.1424 16.1748 56.1994 17.2047 55.5151 18.5051L56.5534 19.0968C57.1396 17.9827 57.9367 17.1155 58.9488 16.4834L58.3397 15.4272ZM55.5151 18.5051C54.8263 19.8142 54.4896 21.2979 54.4896 22.9401H55.6733C55.6733 21.478 55.9718 20.2022 56.5534 19.0968L55.5151 18.5051ZM54.4896 22.9401C54.4896 24.5558 54.8273 26.0368 55.5124 27.3697L56.5562 26.7887C55.9707 25.6497 55.6733 24.3712 55.6733 22.9401H54.4896ZM55.5124 27.3697C56.1947 28.6973 57.1351 29.7558 58.3306 30.5334L58.958 29.4888C57.9439 28.8292 57.1443 27.9332 56.5562 26.7887L55.5124 27.3697ZM58.3453 30.5427C59.5732 31.2907 60.934 31.6618 62.4143 31.6618V30.4299C61.1326 30.4299 59.9801 30.1112 58.9433 29.4795L58.3453 30.5427ZM82.5124 33.3741L82.1939 33.8934L82.197 33.8955L82.2002 33.8974L82.5124 33.3741ZM78.7009 29.1057L78.1766 29.3915L78.1793 29.3966L78.1819 29.4018L78.7009 29.1057ZM78.8251 16.8607L78.3148 16.5488L78.313 16.5519L78.3113 16.5551L78.8251 16.8607ZM82.9266 12.5923L83.2237 13.1249L83.225 13.1242L83.2263 13.1233L82.9266 12.5923ZM94.568 12.5923L94.2647 13.1212L94.2678 13.1231L94.2709 13.1249L94.568 12.5923ZM98.6281 16.8607L98.1141 17.1664L98.1159 17.1694L98.1177 17.1726L98.6281 16.8607ZM100.161 22.9832V23.5991H100.753V22.9832H100.161ZM98.5452 22.9832V22.3673H97.9534V22.9832H98.5452ZM97.1366 29.1057L96.6157 28.8131L96.615 28.8147L96.6142 28.8163L97.1366 29.1057ZM93.3666 33.3741L93.6787 33.8974L93.6819 33.8955L93.6849 33.8934L93.3666 33.3741ZM92.5381 30.0111L92.8425 30.5392L92.8471 30.5364L92.8516 30.5334L92.5381 30.0111ZM95.1481 27.1223L95.6671 27.4182L95.6685 27.4155L95.6698 27.4128L95.1481 27.1223ZM95.1481 18.8441L94.6262 19.1345L94.6275 19.1373L94.6289 19.14L95.1481 18.8441ZM92.5381 15.9553L92.2244 16.4776L92.2289 16.4806L92.2335 16.4834L92.5381 15.9553ZM84.9981 15.9553L85.3025 16.4834L85.3043 16.4823L85.3062 16.4812L84.9981 15.9553ZM82.3465 18.8441L81.8298 18.5439L81.8287 18.5461L81.8275 18.5482L82.3465 18.8441ZM82.3465 27.1223L81.8248 27.4128L81.8287 27.4204L81.8327 27.428L82.3465 27.1223ZM84.9981 30.0111L84.6843 30.5334L84.6916 30.5381L84.6991 30.5427L84.9981 30.0111ZM96.5152 34.1933L96.0825 34.6137L96.0964 34.6292L96.1113 34.6436L96.5152 34.1933ZM95.9352 26.0013L95.3526 25.8927L95.3434 25.9465V26.0013H95.9352ZM96.7224 21.431L96.9578 20.866L96.2717 20.5563L96.1398 21.3224L96.7224 21.431ZM100.161 22.9832H100.753V22.579L100.396 22.4181L100.161 22.9832ZM87.9394 34.3104C86.0256 34.3104 84.3261 33.8208 82.8244 32.8508L82.2002 33.8974C83.9023 34.997 85.821 35.5422 87.9394 35.5422V34.3104ZM82.8306 32.8549C81.315 31.8486 80.1125 30.5035 79.2198 28.8095L78.1819 29.4018C79.1674 31.272 80.5059 32.7726 82.1939 33.8934L82.8306 32.8549ZM79.2252 28.8199C78.3629 27.1066 77.9256 25.1656 77.9256 22.9832H76.7419C76.7419 25.3423 77.216 27.483 78.1766 29.3915L79.2252 28.8199ZM77.9256 22.9832C77.9256 20.8098 78.4003 18.876 79.339 17.1664L78.3113 16.5551C77.2615 18.4672 76.7419 20.615 76.7419 22.9832H77.9256ZM79.3355 17.1726C80.3068 15.4515 81.6013 14.1054 83.2237 13.1249L82.6294 12.0596C80.8272 13.1486 79.3873 14.6483 78.3148 16.5488L79.3355 17.1726ZM83.2263 13.1233C84.8693 12.1191 86.7117 11.6129 88.7679 11.6129V10.381C86.5158 10.381 84.4639 10.9383 82.6268 12.0612L83.2263 13.1233ZM88.7679 11.6129C90.8243 11.6129 92.6513 12.1192 94.2647 13.1212L94.8713 12.0633C93.0598 10.9383 91.0202 10.381 88.7679 10.381V11.6129ZM94.2709 13.1249C95.8919 14.1045 97.171 15.4485 98.1141 17.1664L99.1419 16.5551C98.0965 14.6512 96.6689 13.1496 94.8652 12.0596L94.2709 13.1249ZM98.1177 17.1726C99.0819 18.8813 99.569 20.8129 99.569 22.9832H100.753C100.753 20.6119 100.218 18.4619 99.1383 16.5488L98.1177 17.1726ZM100.161 22.3673H98.5452V23.5991H100.161V22.3673ZM97.9534 22.9832C97.9534 25.1626 97.5035 27.1011 96.6157 28.8131L97.6575 29.3982C98.6477 27.4884 99.137 25.3453 99.137 22.9832H97.9534ZM96.6142 28.8163C95.7496 30.5068 94.5624 31.8496 93.0482 32.8549L93.6849 33.8934C95.3746 32.7716 96.7007 31.2687 97.659 29.395L96.6142 28.8163ZM93.0545 32.8508C91.5528 33.8208 89.8533 34.3104 87.9394 34.3104V35.5422C90.0579 35.5422 91.9765 34.997 93.6787 33.8974L93.0545 32.8508ZM88.7679 31.6618C90.2735 31.6618 91.6373 31.2919 92.8425 30.5392L92.2335 29.483C91.2292 30.11 90.0797 30.4299 88.7679 30.4299V31.6618ZM92.8516 30.5334C94.0438 29.7579 94.9839 28.7165 95.6671 27.4182L94.6289 26.8264C94.0416 27.9426 93.2418 28.827 92.2244 29.4888L92.8516 30.5334ZM95.6698 27.4128C96.3549 26.0799 96.6928 24.5989 96.6928 22.9832H95.5091C95.5091 24.4143 95.2115 25.6928 94.6262 26.8318L95.6698 27.4128ZM96.6928 22.9832C96.6928 21.341 96.3559 19.8573 95.6671 18.5482L94.6289 19.14C95.2106 20.2453 95.5091 21.5211 95.5091 22.9832H96.6928ZM95.6698 18.5536C94.9866 17.224 94.0433 16.1769 92.8425 15.4272L92.2335 16.4834C93.2422 17.1134 94.039 17.9921 94.6262 19.1345L95.6698 18.5536ZM92.8516 15.433C91.6452 14.6483 90.2781 14.2615 88.7679 14.2615V15.4933C90.0751 15.4933 91.2212 15.8252 92.2244 16.4776L92.8516 15.433ZM88.7679 14.2615C87.283 14.2615 85.919 14.6494 84.6898 15.4294L85.3062 16.4812C86.3418 15.824 87.4911 15.4933 88.7679 15.4933V14.2615ZM84.6935 15.4272C83.495 16.1754 82.5402 17.2193 81.8298 18.5439L82.8634 19.1443C83.4787 17.9968 84.2914 17.1149 85.3025 16.4834L84.6935 15.4272ZM81.8275 18.5482C81.1387 19.8573 80.8019 21.341 80.8019 22.9832H81.9856C81.9856 21.5211 82.284 20.2453 82.8657 19.14L81.8275 18.5482ZM80.8019 22.9832C80.8019 24.5989 81.1396 26.0799 81.8248 27.4128L82.8684 26.8318C82.2831 25.6928 81.9856 24.4143 81.9856 22.9832H80.8019ZM81.8327 27.428C82.5428 28.7212 83.4945 29.7594 84.6843 30.5334L85.3116 29.4888C84.292 28.8255 83.4761 27.938 82.8605 26.8167L81.8327 27.428ZM84.6991 30.5427C85.9269 31.2907 87.2878 31.6618 88.7679 31.6618V30.4299C87.4864 30.4299 86.3338 30.1112 85.2969 29.4795L84.6991 30.5427ZM98.0481 34.181C97.5784 34.181 97.2154 34.0309 96.919 33.7431L96.1113 34.6436C96.6435 35.1606 97.3023 35.4129 98.0481 35.4129V34.181ZM96.9478 33.773C96.6712 33.4647 96.527 33.0867 96.527 32.598H95.3434C95.3434 33.3741 95.5857 34.0597 96.0825 34.6137L96.9478 33.773ZM96.527 32.598V26.0013H95.3434V32.598H96.527ZM96.5177 26.11L97.3048 21.5397L96.1398 21.3224L95.3526 25.8927L96.5177 26.11ZM96.4868 21.9961L99.9254 23.5483L100.396 22.4181L96.9578 20.866L96.4868 21.9961ZM99.569 22.9832V32.598H100.753V22.9832H99.569ZM99.569 32.598C99.569 33.0738 99.4197 33.4468 99.1209 33.7577L99.9579 34.6289C100.488 34.0775 100.753 33.3871 100.753 32.598H99.569ZM99.1209 33.7577C98.8581 34.0313 98.5177 34.181 98.0481 34.181V35.4129C98.7934 35.4129 99.4474 35.1601 99.9579 34.6289L99.1209 33.7577ZM107.651 34.0209L107.445 34.598L107.45 34.6002L107.456 34.6022L107.651 34.0209ZM103.84 31.6495L103.408 32.0708L103.415 32.0781L103.421 32.0851L103.84 31.6495ZM103.301 30.0973L102.715 30.0102L102.714 30.023L102.712 30.036L103.301 30.0973ZM104.13 28.6314L104.489 29.1207L104.495 29.1166L104.5 29.1123L104.13 28.6314ZM105.746 28.0709L105.653 28.6793L105.67 28.682L105.687 28.6837L105.746 28.0709ZM107.154 28.8038L107.595 28.3931L107.591 28.3883L107.587 28.3835L107.154 28.8038ZM109.391 30.356L109.144 30.9157L109.153 30.9199L109.162 30.9237L109.391 30.356ZM116.517 30.2267L116.208 29.7015L116.204 29.7039L116.2 29.7063L116.517 30.2267ZM116.641 25.872L116.284 26.3626L116.288 26.3657L116.291 26.3687L116.641 25.872ZM112.208 24.3198L112.094 24.924L112.099 24.925L112.104 24.926L112.208 24.3198ZM106.118 21.7328L105.725 22.1932L105.728 22.1954L105.73 22.1976L106.118 21.7328ZM105.497 13.8857L105.935 14.3L105.938 14.2967L105.941 14.2932L105.497 13.8857ZM108.687 11.7299L108.878 12.313L108.883 12.3111L108.888 12.3092L108.687 11.7299ZM120.95 14.4031L120.491 14.791L120.497 14.8L120.505 14.8088L120.95 14.4031ZM121.489 15.8691L122.079 15.9053V15.9032L121.489 15.8691ZM120.784 17.1194L121.119 17.627L121.13 17.6198L121.139 17.6122L120.784 17.1194ZM117.677 16.6452L117.267 17.0895L117.27 17.0924L117.273 17.0954L117.677 16.6452ZM109.557 15.481L109.299 14.9265L109.296 14.9283L109.292 14.9301L109.557 15.481ZM108.687 18.8009L108.18 19.1178L108.192 19.139L108.206 19.1589L108.687 18.8009ZM110.261 19.922L110.028 20.4881L110.037 20.4918L110.045 20.4953L110.261 19.922ZM113.658 20.8705L113.54 21.474L113.541 21.4743L113.542 21.4745L113.658 20.8705ZM118.547 22.5089L118.268 23.0521L118.27 23.0534L118.273 23.0548L118.547 22.5089ZM121.157 24.8372L120.653 25.1591L120.655 25.1629L120.658 25.1667L121.157 24.8372ZM120.909 31.4339L120.419 31.0891L120.415 31.0939L120.411 31.0987L120.909 31.4339ZM117.926 33.9778L117.679 33.4179L117.677 33.4189L117.675 33.42L117.926 33.9778ZM113.037 34.3104C111.164 34.3104 109.435 34.018 107.847 33.4395L107.456 34.6022C109.182 35.231 111.044 35.5422 113.037 35.5422V34.3104ZM107.858 33.4437C106.282 32.832 105.093 32.0823 104.258 31.2139L103.421 32.0851C104.41 33.1138 105.762 33.945 107.445 34.598L107.858 33.4437ZM104.272 31.2282C103.962 30.8847 103.854 30.5392 103.89 30.1587L102.712 30.036C102.639 30.8052 102.889 31.4944 103.408 32.0708L104.272 31.2282ZM103.887 30.1844C103.948 29.7422 104.142 29.3972 104.489 29.1207L103.77 28.1421C103.179 28.6128 102.82 29.2452 102.715 30.0102L103.887 30.1844ZM104.5 29.1123C104.967 28.723 105.343 28.6282 105.653 28.6793L105.838 27.4624C105.099 27.3411 104.397 27.6199 103.76 28.1505L104.5 29.1123ZM105.687 28.6837C106.093 28.726 106.431 28.8997 106.722 29.2242L107.587 28.3835C107.104 27.8457 106.503 27.5307 105.805 27.458L105.687 28.6837ZM106.713 29.2146C107.26 29.8501 108.088 30.4105 109.144 30.9157L109.638 29.7964C108.651 29.3243 107.988 28.8498 107.595 28.3931L106.713 29.2146ZM109.162 30.9237C110.292 31.4189 111.531 31.6618 112.871 31.6618V30.4299C111.671 30.4299 110.59 30.2129 109.621 29.7884L109.162 30.9237ZM112.871 31.6618C114.521 31.6618 115.868 31.3837 116.834 30.747L116.2 29.7063C115.509 30.162 114.425 30.4299 112.871 30.4299V31.6618ZM116.826 30.7518C117.811 30.1238 118.399 29.2493 118.434 28.1346L117.251 28.0934C117.232 28.7033 116.935 29.2373 116.208 29.7015L116.826 30.7518ZM118.434 28.1346C118.47 27.0193 117.935 26.0953 116.991 25.3753L116.291 26.3687C117.005 26.9133 117.271 27.484 117.251 28.0934L118.434 28.1346ZM116.999 25.3813C116.077 24.6533 114.475 24.1175 112.313 23.7136L112.104 24.926C114.25 25.327 115.604 25.826 116.284 26.3626L116.999 25.3813ZM112.323 23.7156C109.574 23.1489 107.663 22.3143 106.507 21.268L105.73 22.1976C107.115 23.4509 109.264 24.341 112.094 24.924L112.323 23.7156ZM106.512 21.2725C105.39 20.2345 104.846 18.9912 104.846 17.5075H103.662C103.662 19.358 104.362 20.9316 105.725 22.1932L106.512 21.2725ZM104.846 17.5075C104.846 16.1712 105.22 15.119 105.935 14.3L105.059 13.4714C104.117 14.5496 103.662 15.9118 103.662 17.5075H104.846ZM105.941 14.2932C106.695 13.4039 107.668 12.7417 108.878 12.313L108.496 11.1469C107.11 11.6379 105.956 12.4129 105.053 13.4782L105.941 14.2932ZM108.888 12.3092C110.121 11.8452 111.406 11.6129 112.747 11.6129V10.381C111.271 10.381 109.85 10.6373 108.486 11.1507L108.888 12.3092ZM112.747 11.6129C114.508 11.6129 116.044 11.9044 117.369 12.4719L117.82 11.3329C116.327 10.6932 114.632 10.381 112.747 10.381V11.6129ZM117.369 12.4719C118.7 13.0426 119.733 13.8193 120.491 14.791L121.409 14.0152C120.51 12.8598 119.305 11.9694 117.82 11.3329L117.369 12.4719ZM120.505 14.8088C120.809 15.1707 120.915 15.5068 120.898 15.8349L122.079 15.9032C122.117 15.1966 121.864 14.5553 121.395 13.9975L120.505 14.8088ZM120.898 15.8328C120.883 16.1084 120.758 16.3695 120.429 16.6267L121.139 17.6122C121.693 17.1795 122.04 16.607 122.079 15.9053L120.898 15.8328ZM120.449 16.6119C120.156 16.8218 119.795 16.9059 119.316 16.8153L119.104 18.0272C119.84 18.1665 120.529 18.0494 121.119 17.627L120.449 16.6119ZM119.316 16.8153C118.809 16.7194 118.405 16.5095 118.081 16.1949L117.273 17.0954C117.778 17.5856 118.395 17.8932 119.104 18.0272L119.316 16.8153ZM118.087 16.2008C117.34 15.454 116.516 14.9249 115.615 14.6341L115.264 15.8105C115.966 16.0371 116.634 16.4565 117.267 17.0895L118.087 16.2008ZM115.615 14.6341C114.745 14.3531 113.759 14.2183 112.664 14.2183V15.4502C113.669 15.4502 114.532 15.5741 115.264 15.8105L115.615 14.6341ZM112.664 14.2183C111.384 14.2183 110.255 14.4454 109.299 14.9265L109.815 16.0355C110.572 15.6543 111.514 15.4502 112.664 15.4502V14.2183ZM109.292 14.9301C108.811 15.1807 108.413 15.509 108.136 15.9316C107.856 16.3592 107.722 16.8492 107.722 17.3781H108.906C108.906 17.0736 108.98 16.8304 109.114 16.6257C109.251 16.416 109.475 16.2125 109.822 16.0319L109.292 14.9301ZM107.722 17.3781C107.722 18.0038 107.874 18.5881 108.18 19.1178L109.195 18.4841C109.003 18.1515 108.906 17.7872 108.906 17.3781H107.722ZM108.206 19.1589C108.576 19.6995 109.222 20.1284 110.028 20.4881L110.495 19.3558C109.754 19.0256 109.35 18.7072 109.169 18.443L108.206 19.1589ZM110.045 20.4953C110.866 20.831 112.038 21.1556 113.54 21.474L113.777 20.267C112.296 19.9531 111.203 19.6453 110.478 19.3486L110.045 20.4953ZM113.542 21.4745C115.585 21.8998 117.152 22.4308 118.268 23.0521L118.826 21.9658C117.567 21.2648 115.874 20.7036 113.775 20.2665L113.542 21.4745ZM118.273 23.0548C119.427 23.6824 120.201 24.3916 120.653 25.1591L121.661 24.5153C121.064 23.5007 120.098 22.6576 118.821 21.9631L118.273 23.0548ZM120.658 25.1667C121.115 25.9184 121.352 26.8071 121.352 27.8553H122.536C122.536 26.6041 122.25 25.4806 121.657 24.5077L120.658 25.1667ZM121.352 27.8553C121.352 29.0586 121.04 30.1306 120.419 31.0891L121.399 31.7787C122.157 30.6102 122.536 29.2965 122.536 27.8553H121.352ZM120.411 31.0987C119.821 32.0463 118.923 32.8245 117.679 33.4179L118.172 34.5376C119.579 33.8663 120.669 32.9486 121.405 31.7691L120.411 31.0987ZM117.675 33.42C116.478 34.0026 114.941 34.3104 113.037 34.3104V35.5422C115.055 35.5422 116.777 35.2176 118.177 34.5356L117.675 33.42ZM130.146 33.4173L129.856 33.9541L129.861 33.9568L129.865 33.9595L130.146 33.4173ZM125.962 29.1919L125.448 29.4975L125.45 29.5026L125.453 29.5075L125.962 29.1919ZM125.879 16.7745L125.362 16.4754L125.36 16.4769L125.359 16.4784L125.879 16.7745ZM129.856 12.5491L130.151 13.0834L130.153 13.0816L130.157 13.0796L129.856 12.5491ZM141.207 12.506L140.894 13.0283L140.897 13.0304L140.9 13.0325L141.207 12.506ZM144.729 16.602L144.194 16.8665L144.196 16.8721L144.2 16.8775L144.729 16.602ZM145.433 23.9749L145.834 24.4275L145.843 24.4191L145.851 24.4105L145.433 23.9749ZM127.37 24.4923H126.778V25.1082H127.37V24.4923ZM127.37 21.043V20.427H126.778V21.043H127.37ZM143.942 21.043L144.275 21.5516L145.858 20.427H143.942V21.043ZM142.243 22.2502L141.651 22.2625L141.673 23.401L142.577 22.7589L142.243 22.2502ZM141.415 18.4129L140.88 18.6771L140.881 18.68L140.882 18.6827L141.415 18.4129ZM131.596 15.7828L131.288 15.2569L131.285 15.2587L131.282 15.2605L131.596 15.7828ZM129.069 18.7578L129.6 19.0281L129.601 19.0256L129.603 19.0232L129.069 18.7578ZM138.887 30.7441L139.079 31.3265L139.085 31.3248L139.09 31.3229L138.887 30.7441ZM141.083 29.5799L140.733 29.0832L140.73 29.0852L140.728 29.0872L141.083 29.5799ZM142.409 29.1057V29.7216H142.425L142.442 29.7206L142.409 29.1057ZM143.693 29.5368L144.085 29.075L144.08 29.0708L144.075 29.0666L143.693 29.5368ZM143.776 32.2962L143.416 31.8069L143.411 31.8104L143.408 31.8138L143.776 32.2962ZM140.255 34.1933L140.068 33.6091L140.065 33.6095L140.064 33.6102L140.255 34.1933ZM136.277 34.3104C134.07 34.3104 132.125 33.8269 130.427 32.875L129.865 33.9595C131.757 35.0197 133.899 35.5422 136.277 35.5422V34.3104ZM130.436 32.8804C128.756 31.8974 127.438 30.5645 126.469 28.8763L125.453 29.5075C126.529 31.3835 128 32.8676 129.856 33.9541L130.436 32.8804ZM126.475 28.8863C125.538 27.179 125.062 25.217 125.062 22.9832H123.878C123.878 25.4059 124.397 27.583 125.448 29.4975L126.475 28.8863ZM125.062 22.9832C125.062 20.7131 125.513 18.7485 126.397 17.0706L125.359 16.4784C124.366 18.3647 123.878 20.5393 123.878 22.9832H125.062ZM126.396 17.0736C127.312 15.3582 128.561 14.0322 130.151 13.0834L129.561 12.0149C127.781 13.0782 126.378 14.5691 125.362 16.4754L126.396 17.0736ZM130.157 13.0796C131.74 12.107 133.567 11.6129 135.656 11.6129V10.381C133.381 10.381 131.341 10.9217 129.555 12.0187L130.157 13.0796ZM135.656 11.6129C137.719 11.6129 139.457 12.0938 140.894 13.0283L141.521 11.9837C139.864 10.9062 137.9 10.381 135.656 10.381V11.6129ZM140.9 13.0325C142.345 13.9454 143.441 15.2181 144.194 16.8665L145.263 16.3375C144.414 14.4791 143.163 13.0213 141.514 11.9795L140.9 13.0325ZM144.2 16.8775C144.98 18.5027 145.38 20.4031 145.38 22.5952H146.564C146.564 20.2457 146.134 18.1506 145.258 16.3266L144.2 16.8775ZM145.38 22.5952C145.38 22.9841 145.258 23.2854 145.014 23.5393L145.851 24.4105C146.326 23.917 146.564 23.2986 146.564 22.5952H145.38ZM145.032 23.5223C144.796 23.7483 144.49 23.8763 144.066 23.8763V25.1082C144.747 25.1082 145.351 24.8913 145.834 24.4275L145.032 23.5223ZM144.066 23.8763H127.37V25.1082H144.066V23.8763ZM127.962 24.4923V21.043H126.778V24.4923H127.962ZM127.37 21.6589H143.942V20.427H127.37V21.6589ZM143.608 20.5343L141.909 21.7416L142.577 22.7589L144.275 21.5516L143.608 20.5343ZM142.835 22.2379C142.805 20.725 142.514 19.3558 141.946 18.1431L140.882 18.6827C141.364 19.712 141.625 20.9011 141.651 22.2625L142.835 22.2379ZM141.948 18.1487C141.38 16.9031 140.565 15.9085 139.502 15.1818L138.852 16.2114C139.723 16.8069 140.399 17.6233 140.88 18.6771L141.948 18.1487ZM139.502 15.1818C138.421 14.4428 137.13 14.089 135.656 14.089V15.3209C136.944 15.3209 138 15.6281 138.852 16.2114L139.502 15.1818ZM135.656 14.089C133.993 14.089 132.529 14.4693 131.288 15.2569L131.904 16.3087C132.928 15.6593 134.169 15.3209 135.656 15.3209V14.089ZM131.282 15.2605C130.079 16.0434 129.161 17.1258 128.535 18.4925L129.603 19.0232C130.136 17.8604 130.904 16.9595 131.91 16.3052L131.282 15.2605ZM128.537 18.4876C127.912 19.8195 127.607 21.3226 127.607 22.9832H128.791C128.791 21.4819 129.065 20.1682 129.6 19.0281L128.537 18.4876ZM127.607 22.9832C127.607 24.661 127.974 26.1785 128.723 27.5181L129.746 26.899C129.114 25.7668 128.791 24.4671 128.791 22.9832H127.607ZM128.723 27.5181C129.467 28.85 130.496 29.9045 131.801 30.6759L132.385 29.6049C131.26 28.9391 130.383 28.0391 129.746 26.899L128.723 27.5181ZM131.801 30.6759C133.116 31.4536 134.613 31.8343 136.277 31.8343V30.6024C134.792 30.6024 133.501 30.2644 132.385 29.6049L131.801 30.6759ZM136.277 31.8343C137.204 31.8343 138.139 31.6628 139.079 31.3265L138.694 30.1616C137.867 30.4577 137.062 30.6024 136.277 30.6024V31.8343ZM139.09 31.3229C140.036 30.9649 140.824 30.5516 141.438 30.0727L140.728 29.0872C140.237 29.4705 139.562 29.8333 138.685 30.1652L139.09 31.3229ZM141.433 30.0766C141.755 29.8302 142.077 29.7216 142.409 29.7216V28.4897C141.802 28.4897 141.238 28.6973 140.733 29.0832L141.433 30.0766ZM142.442 29.7206C142.797 29.7 143.074 29.799 143.311 30.007L144.075 29.0666C143.594 28.6423 143.014 28.4537 142.376 28.4907L142.442 29.7206ZM143.301 29.9986C143.685 30.3505 143.83 30.681 143.848 30.9938L145.029 30.9255C144.99 30.2035 144.64 29.5855 144.085 29.075L143.301 29.9986ZM143.848 30.9938C143.862 31.2675 143.764 31.5305 143.416 31.8069L144.136 32.7855C144.726 32.3146 145.07 31.6866 145.029 30.9255L143.848 30.9938ZM143.408 31.8138C142.534 32.5361 141.425 33.1379 140.068 33.6091L140.442 34.7776C141.901 34.2714 143.139 33.6086 144.144 32.7786L143.408 31.8138ZM140.064 33.6102C138.735 34.0802 137.474 34.3104 136.277 34.3104V35.5422C137.621 35.5422 139.012 35.2837 140.445 34.7765L140.064 33.6102Z" />
</g>
</svg>
