<svg viewBox="0 0 1402 370" fill="none" xmlns="http://www.w3.org/2000/svg">
<g clip-path="url(#clip0_78_589)">
<path d="M311.64 0H59.36C26.5764 0 0 26.5047 0 59.2V310.8C0 343.495 26.5764 370 59.36 370H311.64C344.424 370 371 343.495 371 310.8V59.2C371 26.5047 344.424 0 311.64 0Z" fill="#0A45FB"/>
<path d="M39.9536 218.205C39.9536 257.502 71.8964 289.359 111.3 289.359L258.748 290.308C298.152 290.308 330.095 258.451 330.095 219.154C330.095 179.857 298.152 148 258.748 148L111.3 147.051C71.8964 147.051 39.9536 178.908 39.9536 218.205Z" fill="white"/>
<ellipse cx="264.152" cy="218.3" rx="33.39" ry="33.3" fill="#002BFE"/>
<ellipse cx="107.59" cy="218.3" rx="33.39" ry="33.3" fill="#002BFE"/>
<path d="M91.2661 111.74C109.668 136.308 113.031 163.91 112.413 174.64H133.56C134.178 163.91 130.963 136.53 113.897 111.74H91.2661Z" fill="white"/>
<ellipse cx="99.0572" cy="105.45" rx="24.857" ry="24.79" fill="white"/>
<path d="M280.546 111.74C262.145 136.308 258.781 163.91 259.399 174.64H238.252C237.634 163.91 240.849 136.53 257.915 111.74H280.546Z" fill="white"/>
<ellipse cx="24.857" cy="24.79" rx="24.857" ry="24.79" transform="matrix(-1 0 0 1 297.612 80.66)" fill="white"/>
<path d="M185.922 260.335C180.197 260.48 174.576 258.79 169.873 255.513C168.662 254.565 166.195 252.387 164.515 250.517C163.705 249.617 162.889 248.668 161.909 248.043C160.844 247.456 159.646 247.152 158.431 247.16C157.215 247.169 156.022 247.49 154.966 248.093C153.909 248.696 153.024 249.56 152.395 250.604C151.766 251.647 151.414 252.835 151.372 254.054C151.331 255.273 151.602 256.483 152.158 257.567C152.715 258.651 153.171 259.531 154.073 260.335C157.079 263.452 162.832 267.612 165.661 269.343C171.835 272.925 178.877 274.719 186.006 274.526C193.135 274.333 200.071 272.161 206.044 268.25C209.274 266.136 213.882 262.545 215.886 260.335C216.888 259.23 217.277 258.567 217.99 257.514C218.546 256.43 218.928 255.273 218.887 254.054C218.846 252.835 218.494 251.647 217.865 250.604C217.236 249.56 216.351 248.696 215.294 248.093C214.237 247.49 213.044 247.169 211.829 247.16C210.613 247.152 209.416 247.456 208.351 248.043C207.37 248.668 206.469 249.472 205.745 250.517C204.665 251.885 203.263 253.392 201.709 254.711C197.176 258.221 191.646 260.191 185.922 260.335Z" fill="#002BFE"/>
</g>
<path d="M566.322 276.203C561.002 276.203 556.883 273.26 553.965 267.374L499.39 147.769C498.017 144.736 497.846 141.793 498.875 138.939C500.077 135.906 502.308 133.587 505.569 131.982C508.486 130.376 511.403 130.109 514.321 131.179C517.41 132.249 519.727 134.301 521.272 137.333L572.243 251.587H559.886L610.342 137.333C611.887 134.301 614.203 132.249 617.293 131.179C620.553 130.109 623.814 130.376 627.075 131.982C630.164 133.409 632.223 135.638 633.253 138.671C634.283 141.704 634.111 144.736 632.738 147.769L578.163 267.374C575.589 273.26 571.642 276.203 566.322 276.203ZM703.099 277.541C690.571 277.541 679.329 274.33 669.376 267.909C659.422 261.309 651.527 252.479 645.692 241.419C640.029 230.181 637.197 217.516 637.197 203.424C637.197 189.332 640.286 176.666 646.464 165.428C652.814 154.19 661.309 145.361 671.95 138.939C682.762 132.339 694.861 129.039 708.247 129.039C721.634 129.039 733.647 132.339 744.287 138.939C754.928 145.361 763.337 154.19 769.515 165.428C775.865 176.666 779.04 189.332 779.04 203.424H769C769 217.516 766.083 230.181 760.248 241.419C754.584 252.479 746.775 261.309 736.822 267.909C726.868 274.33 715.627 277.541 703.099 277.541ZM708.247 253.46C717 253.46 724.809 251.319 731.673 247.038C738.538 242.579 743.944 236.603 747.891 229.111C751.839 221.441 753.812 212.878 753.812 203.424C753.812 193.791 751.839 185.229 747.891 177.737C743.944 170.067 738.538 164.091 731.673 159.809C724.809 155.35 717 153.12 708.247 153.12C699.666 153.12 691.858 155.35 684.821 159.809C677.957 164.091 672.465 170.067 668.346 177.737C664.398 185.229 662.425 193.791 662.425 203.424C662.425 212.878 664.398 221.441 668.346 229.111C672.465 236.603 677.957 242.579 684.821 247.038C691.858 251.319 699.666 253.46 708.247 253.46ZM765.911 276.739C762.136 276.739 758.961 275.49 756.386 272.993C753.983 270.317 752.782 267.017 752.782 263.092V222.154L757.674 193.791L779.04 203.424V263.092C779.04 267.017 777.753 270.317 775.179 272.993C772.776 275.49 769.687 276.739 765.911 276.739ZM878.615 277.541C865.229 277.541 853.215 274.33 842.575 267.909C831.934 261.309 823.525 252.389 817.347 241.151C811.169 229.913 807.993 217.248 807.822 203.156V81.1431C807.822 77.0401 809.023 73.7405 811.426 71.2429C814 68.7453 817.175 67.4969 820.951 67.4969C824.898 67.4969 828.073 68.7453 830.476 71.2429C832.878 73.7405 834.08 77.0401 834.08 81.1431V153.388C840.086 145.896 847.294 140.009 855.704 135.728C864.284 131.269 873.638 129.039 883.763 129.039C896.291 129.039 907.532 132.339 917.487 138.939C927.44 145.361 935.249 154.19 940.913 165.428C946.747 176.488 949.665 189.064 949.665 203.156C949.665 217.248 946.49 229.913 940.14 241.151C933.962 252.389 925.552 261.309 914.912 267.909C904.272 274.33 892.173 277.541 878.615 277.541ZM878.615 253.46C887.367 253.46 895.176 251.319 902.041 247.038C908.905 242.579 914.311 236.513 918.259 228.843C922.378 221.173 924.437 212.611 924.437 203.156C924.437 193.524 922.378 184.961 918.259 177.469C914.311 169.977 908.905 164.091 902.041 159.809C895.176 155.35 887.367 153.12 878.615 153.12C870.034 153.12 862.225 155.35 855.189 159.809C848.324 164.091 842.918 169.977 838.971 177.469C835.023 184.961 833.05 193.524 833.05 203.156C833.05 212.611 835.023 221.173 838.971 228.843C842.918 236.513 848.324 242.579 855.189 247.038C862.225 251.319 870.034 253.46 878.615 253.46ZM1037.22 277.541C1024.69 277.541 1013.45 274.33 1003.5 267.909C993.546 261.309 985.652 252.479 979.817 241.419C974.153 230.181 971.322 217.516 971.322 203.424C971.322 189.332 974.411 176.666 980.589 165.428C986.939 154.19 995.434 145.361 1006.07 138.939C1016.89 132.339 1028.99 129.039 1042.37 129.039C1055.76 129.039 1067.77 132.339 1078.41 138.939C1089.05 145.361 1097.46 154.19 1103.64 165.428C1109.99 176.666 1113.16 189.332 1113.16 203.424H1103.13C1103.13 217.516 1100.21 230.181 1094.37 241.419C1088.71 252.479 1080.9 261.309 1070.95 267.909C1060.99 274.33 1049.75 277.541 1037.22 277.541ZM1042.37 253.46C1051.12 253.46 1058.93 251.319 1065.8 247.038C1072.66 242.579 1078.07 236.603 1082.02 229.111C1085.96 221.441 1087.94 212.878 1087.94 203.424C1087.94 193.791 1085.96 185.229 1082.02 177.737C1078.07 170.067 1072.66 164.091 1065.8 159.809C1058.93 155.35 1051.12 153.12 1042.37 153.12C1033.79 153.12 1025.98 155.35 1018.95 159.809C1012.08 164.091 1006.59 170.067 1002.47 177.737C998.523 185.229 996.55 193.791 996.55 203.424C996.55 212.878 998.523 221.441 1002.47 229.111C1006.59 236.603 1012.08 242.579 1018.95 247.038C1025.98 251.319 1033.79 253.46 1042.37 253.46ZM1100.04 276.739C1096.26 276.739 1093.09 275.49 1090.51 272.993C1088.11 270.317 1086.91 267.017 1086.91 263.092V222.154L1091.8 193.791L1113.16 203.424V263.092C1113.16 267.017 1111.88 270.317 1109.3 272.993C1106.9 275.49 1103.81 276.739 1100.04 276.739ZM1193.17 277.541C1181.16 277.541 1170.01 275.668 1159.71 271.922C1149.58 267.998 1141.69 263.092 1136.03 257.206C1133.45 254.352 1132.34 251.141 1132.68 247.573C1133.19 243.827 1134.91 240.794 1137.83 238.476C1141.26 235.622 1144.61 234.462 1147.87 234.997C1151.3 235.354 1154.22 236.87 1156.62 239.546C1159.54 242.935 1164.17 246.146 1170.52 249.179C1177.04 252.032 1184.25 253.46 1192.14 253.46C1202.1 253.46 1209.65 251.765 1214.8 248.376C1220.12 244.987 1222.86 240.616 1223.04 235.265C1223.21 229.913 1220.72 225.275 1215.57 221.351C1210.59 217.427 1201.41 214.216 1188.03 211.718C1170.69 208.151 1158.08 202.799 1150.18 195.664C1142.46 188.529 1138.6 179.788 1138.6 169.442C1138.6 160.345 1141.17 152.853 1146.32 146.966C1151.47 140.901 1158.08 136.441 1166.14 133.587C1174.21 130.555 1182.62 129.039 1191.37 129.039C1202.7 129.039 1212.74 130.912 1221.49 134.658C1230.24 138.404 1237.2 143.577 1242.34 150.177C1244.75 153.031 1245.86 156.063 1245.69 159.274C1245.52 162.307 1244.06 164.893 1241.31 167.034C1238.57 168.996 1235.31 169.62 1231.53 168.907C1227.76 168.194 1224.58 166.588 1222.01 164.091C1217.72 159.809 1213.08 156.866 1208.11 155.261C1203.13 153.655 1197.38 152.853 1190.86 152.853C1183.31 152.853 1176.87 154.19 1171.55 156.866C1166.4 159.542 1163.83 163.466 1163.83 168.639C1163.83 171.85 1164.6 174.793 1166.14 177.469C1167.86 179.967 1171.12 182.286 1175.93 184.426C1180.73 186.389 1187.77 188.35 1197.04 190.313C1209.91 192.988 1220.03 196.377 1227.41 200.48C1234.97 204.583 1240.37 209.4 1243.63 214.929C1246.89 220.281 1248.52 226.524 1248.52 233.659C1248.52 241.865 1246.37 249.268 1242.09 255.868C1237.97 262.468 1231.79 267.731 1223.55 271.655C1215.48 275.579 1205.36 277.541 1193.17 277.541ZM1337.59 277.541C1323.34 277.541 1310.64 274.42 1299.49 268.176C1288.5 261.755 1279.83 253.014 1273.49 241.954C1267.31 230.716 1264.22 217.873 1264.22 203.424C1264.22 188.797 1267.13 175.953 1272.97 164.893C1278.97 153.655 1287.21 144.915 1297.68 138.671C1308.15 132.249 1320.16 129.039 1333.72 129.039C1347.11 129.039 1358.61 132.16 1368.22 138.404C1377.82 144.468 1385.12 152.942 1390.1 163.823C1395.25 174.526 1397.82 186.924 1397.82 201.016C1397.82 204.405 1396.71 207.259 1394.48 209.578C1392.24 211.718 1389.41 212.789 1385.98 212.789H1282.24V191.383H1385.21L1374.65 198.875C1374.48 189.956 1372.76 182.018 1369.51 175.061C1366.24 167.926 1361.61 162.307 1355.61 158.204C1349.6 154.101 1342.3 152.05 1333.72 152.05C1323.94 152.05 1315.53 154.28 1308.5 158.739C1301.63 163.198 1296.4 169.353 1292.79 177.202C1289.19 184.872 1287.39 193.613 1287.39 203.424C1287.39 213.234 1289.53 221.976 1293.82 229.646C1298.11 237.316 1304.03 243.381 1311.58 247.841C1319.13 252.3 1327.8 254.53 1337.59 254.53C1342.9 254.53 1348.31 253.549 1353.8 251.587C1359.47 249.446 1364.01 247.038 1367.45 244.362C1370.02 242.4 1372.76 241.419 1375.68 241.419C1378.77 241.241 1381.43 242.132 1383.66 244.095C1386.58 246.77 1388.12 249.714 1388.3 252.925C1388.47 256.136 1387.09 258.901 1384.18 261.219C1378.34 266.036 1371.05 269.96 1362.3 272.993C1353.71 276.025 1345.48 277.541 1337.59 277.541Z" fill="#0A45FB"/>
<mask id="mask0_78_589" style="mask-type:luminance" maskUnits="userSpaceOnUse" x="494" y="63" width="908" height="219">
<path d="M494.058 63.1775H1401.68V281.822H494.058V63.1775Z" fill="white"/>
</mask>
<g mask="url(#mask0_78_589)">
<path d="M553.966 267.374L550.643 269.012L550.668 269.068L550.696 269.124L553.966 267.374ZM499.391 147.769L496.063 149.396L496.066 149.402L496.068 149.407L499.391 147.769ZM498.876 138.939L495.476 137.483L495.454 137.54L495.432 137.596L498.876 138.939ZM505.569 131.982L507.143 135.437L507.217 135.4L507.289 135.36L505.569 131.982ZM514.322 131.179L513.098 134.784L513.128 134.794L513.159 134.805L514.322 131.179ZM521.272 137.333L524.608 135.726L524.568 135.634L524.522 135.544L521.272 137.333ZM572.243 251.587V255.409H578.002L575.579 249.979L572.243 251.587ZM559.887 251.587L556.544 249.992L554.152 255.409H559.887V251.587ZM610.343 137.333L607.092 135.544L607.044 135.641L607 135.739L610.343 137.333ZM617.293 131.179L616.185 127.534L616.158 127.543L616.13 127.553L617.293 131.179ZM627.075 131.982L625.501 135.437L625.541 135.456L625.582 135.475L627.075 131.982ZM632.739 147.769L636.062 149.407L636.064 149.402L636.066 149.396L632.739 147.769ZM578.164 267.374L574.841 265.735L574.828 265.763L574.816 265.792L578.164 267.374ZM566.322 272.381C562.679 272.381 559.672 270.541 557.235 265.623L550.696 269.124C554.094 275.979 559.325 280.026 566.322 280.026V272.381ZM557.289 265.735L502.714 146.13L496.068 149.407L550.643 269.012L557.289 265.735ZM502.718 146.141C501.722 143.939 501.674 142.069 502.32 140.281L495.432 137.596C494.018 141.518 494.314 145.533 496.063 149.396L502.718 146.141ZM502.277 140.394C503.079 138.368 504.582 136.697 507.143 135.437L503.995 128.526C500.034 130.477 497.075 133.445 495.476 137.483L502.277 140.394ZM507.289 135.36C509.367 134.216 511.219 134.095 513.098 134.784L515.546 127.575C511.588 126.123 507.606 126.536 503.849 128.604L507.289 135.36ZM513.159 134.805C515.337 135.56 516.913 136.945 518.022 139.121L524.522 135.544C522.542 131.656 519.484 128.938 515.484 127.553L513.159 134.805ZM517.936 138.941L568.907 253.194L575.579 249.979L524.608 135.726L517.936 138.941ZM572.243 247.764H559.887V255.409H572.243V247.764ZM563.229 253.181L613.685 138.928L607 135.739L556.544 249.992L563.229 253.181ZM613.593 139.121C614.703 136.945 616.279 135.56 618.457 134.805L616.131 127.553C612.131 128.938 609.073 131.657 607.093 135.545L613.593 139.121ZM618.402 134.824C620.725 134.061 623.029 134.219 625.502 135.436L628.65 128.527C624.602 126.534 620.384 126.156 616.185 127.534L618.402 134.824ZM625.582 135.475C627.843 136.519 629.127 137.999 629.786 139.943L636.722 137.399C635.323 133.278 632.487 130.298 628.57 128.489L625.582 135.475ZM629.786 139.943C630.479 141.984 630.393 143.976 629.412 146.141L636.066 149.396C637.832 145.497 638.089 141.423 636.722 137.399L629.786 139.943ZM629.417 146.13L574.841 265.735L581.488 269.012L636.063 149.407L629.417 146.13ZM574.817 265.792C573.723 268.294 572.453 269.903 571.13 270.89C569.841 271.851 568.29 272.381 566.322 272.381V280.026C569.675 280.026 572.759 279.084 575.418 277.102C578.04 275.145 580.032 272.34 581.513 268.955L574.817 265.792ZM669.377 267.909L667.399 271.131L667.418 271.144L667.437 271.156L669.377 267.909ZM645.693 241.419L642.436 243.193L642.452 243.225L642.469 243.257L645.693 241.419ZM646.466 165.428L643.295 163.493L643.284 163.512L643.273 163.532L646.466 165.428ZM671.951 138.939L673.798 142.244L673.806 142.24L673.813 142.234L671.951 138.939ZM744.288 138.939L742.404 142.221L742.423 142.233L742.442 142.244L744.288 138.939ZM769.516 165.428L766.324 167.325L766.335 167.344L766.346 167.364L769.516 165.428ZM779.041 203.424V207.246H782.719V203.424H779.041ZM769.002 203.424V199.601H765.324V203.424H769.002ZM760.249 241.419L757.013 239.603L757.008 239.613L757.003 239.623L760.249 241.419ZM736.823 267.909L738.763 271.156L738.782 271.144L738.801 271.131L736.823 267.909ZM731.674 247.038L733.567 250.315L733.596 250.298L733.624 250.279L731.674 247.038ZM747.893 229.111L751.118 230.947L751.127 230.93L751.135 230.913L747.893 229.111ZM747.893 177.737L744.65 179.539L744.658 179.556L744.667 179.573L747.893 177.737ZM731.674 159.809L729.725 163.051L729.754 163.069L729.783 163.087L731.674 159.809ZM684.822 159.809L686.715 163.087L686.726 163.08L686.737 163.073L684.822 159.809ZM668.347 177.737L665.136 175.874L665.128 175.887L665.122 175.9L668.347 177.737ZM668.347 229.111L665.104 230.913L665.128 230.961L665.154 231.007L668.347 229.111ZM684.822 247.038L682.873 250.279L682.919 250.309L682.965 250.337L684.822 247.038ZM756.388 272.993L753.699 275.601L753.785 275.697L753.879 275.787L756.388 272.993ZM752.784 222.154L749.164 221.479L749.106 221.814V222.154H752.784ZM757.675 193.791L759.138 190.284L754.875 188.362L754.055 193.117L757.675 193.791ZM779.041 203.424H782.719V200.915L780.505 199.917L779.041 203.424ZM703.1 273.719C691.207 273.719 680.647 270.681 671.316 264.661L667.437 271.156C678.015 277.98 689.936 281.364 703.1 281.364V273.719ZM671.355 264.686C661.936 258.441 654.464 250.094 648.918 239.581L642.469 243.257C648.593 254.863 656.909 264.176 667.399 271.131L671.355 264.686ZM648.951 239.645C643.593 229.013 640.876 216.967 640.876 203.424H633.521C633.521 218.064 636.467 231.349 642.436 243.193L648.951 239.645ZM640.876 203.424C640.876 189.936 643.826 177.935 649.658 167.325L643.273 163.532C636.749 175.398 633.521 188.727 633.521 203.424H640.876ZM649.637 167.364C655.673 156.683 663.716 148.329 673.798 142.244L670.104 135.633C658.906 142.391 649.959 151.698 643.295 163.493L649.637 167.364ZM673.813 142.234C684.022 136.002 695.471 132.861 708.249 132.861V125.216C694.253 125.216 681.504 128.675 670.089 135.643L673.813 142.234ZM708.249 132.861C721.027 132.861 732.379 136.003 742.404 142.221L746.173 135.656C734.917 128.675 722.243 125.216 708.249 125.216V132.861ZM742.442 142.244C752.515 148.324 760.462 156.664 766.324 167.325L772.709 163.532C766.214 151.716 757.343 142.397 746.135 135.633L742.442 142.244ZM766.346 167.364C772.337 177.968 775.364 189.955 775.364 203.424H782.719C782.719 188.708 779.396 175.365 772.688 163.493L766.346 167.364ZM779.041 199.601H769.002V207.246H779.041V199.601ZM765.324 203.424C765.324 216.949 762.529 228.979 757.013 239.603L763.485 243.235C769.639 231.383 772.679 218.083 772.679 203.424H765.324ZM757.003 239.623C751.63 250.114 744.254 258.447 734.845 264.686L738.801 271.131C749.3 264.17 757.541 254.843 763.496 243.215L757.003 239.623ZM734.884 264.661C725.553 270.681 714.992 273.719 703.1 273.719V281.364C716.264 281.364 728.186 277.98 738.763 271.156L734.884 264.661ZM708.249 257.282C717.603 257.282 726.078 254.986 733.567 250.315L729.783 243.761C723.542 247.652 716.399 249.637 708.249 249.637V257.282ZM733.624 250.279C741.031 245.467 746.873 239.004 751.118 230.947L744.667 227.274C741.018 234.201 736.048 239.69 729.725 243.797L733.624 250.279ZM751.135 230.913C755.392 222.642 757.491 213.451 757.491 203.424H750.136C750.136 212.305 748.287 220.239 744.65 227.308L751.135 230.913ZM757.491 203.424C757.491 193.232 755.398 184.025 751.118 175.9L744.667 179.573C748.282 186.433 750.136 194.35 750.136 203.424H757.491ZM751.135 175.934C746.889 167.683 741.028 161.185 733.567 156.532L729.783 163.087C736.051 166.996 741.001 172.45 744.65 179.539L751.135 175.934ZM733.624 156.568C726.127 151.698 717.632 149.298 708.249 149.298V156.943C716.37 156.943 723.493 159.002 729.725 163.051L733.624 156.568ZM708.249 149.298C699.022 149.298 690.545 151.705 682.908 156.546L686.737 163.073C693.173 158.994 700.314 156.943 708.249 156.943V149.298ZM682.931 156.532C675.484 161.176 669.55 167.654 665.136 175.874L671.558 179.6C675.382 172.479 680.432 167.006 686.715 163.087L682.931 156.532ZM665.122 175.9C660.842 184.025 658.749 193.232 658.749 203.424H666.104C666.104 194.35 667.958 186.433 671.573 179.573L665.122 175.9ZM658.749 203.424C658.749 213.451 660.847 222.642 665.104 230.913L671.59 227.308C667.953 220.239 666.104 212.305 666.104 203.424H658.749ZM665.154 231.007C669.567 239.033 675.48 245.476 682.873 250.279L686.772 243.797C680.436 239.681 675.365 234.172 671.54 227.214L665.154 231.007ZM682.965 250.337C690.595 254.979 699.05 257.282 708.249 257.282V249.637C700.285 249.637 693.123 247.66 686.68 243.739L682.965 250.337ZM765.913 272.916C762.995 272.916 760.738 271.984 758.897 270.198L753.879 275.787C757.186 278.995 761.279 280.561 765.913 280.561V272.916ZM759.076 270.384C757.358 268.471 756.461 266.125 756.461 263.092H749.106C749.106 267.909 750.612 272.163 753.699 275.601L759.076 270.384ZM756.461 263.092V222.154H749.106V263.092H756.461ZM756.404 222.828L761.295 194.465L754.055 193.117L749.164 221.479L756.404 222.828ZM756.212 197.298L777.578 206.93L780.505 199.917L759.138 190.284L756.212 197.298ZM775.364 203.424V263.092H782.719V203.424H775.364ZM775.364 263.092C775.364 266.045 774.436 268.36 772.58 270.289L777.781 275.696C781.072 272.274 782.719 267.989 782.719 263.092H775.364ZM772.58 270.289C770.946 271.987 768.832 272.916 765.913 272.916V280.561C770.545 280.561 774.608 278.992 777.781 275.696L772.58 270.289ZM842.576 267.909L840.691 271.191L840.71 271.203L840.729 271.214L842.576 267.909ZM807.823 203.156H804.146V203.204L807.823 203.156ZM811.427 71.2429L808.918 68.4487L808.871 68.4938L808.827 68.5397L811.427 71.2429ZM834.081 153.388H830.404V163.945L836.906 155.835L834.081 153.388ZM855.705 135.728L857.322 139.16L857.336 139.154L857.35 139.147L855.705 135.728ZM917.488 138.939L915.51 142.161L915.529 142.174L915.548 142.186L917.488 138.939ZM940.914 165.428L937.656 167.202L937.673 167.234L937.689 167.266L940.914 165.428ZM940.142 241.151L936.97 239.216L936.959 239.236L936.949 239.255L940.142 241.151ZM914.914 267.909L916.76 271.214L916.779 271.203L916.798 271.191L914.914 267.909ZM902.042 247.038L903.934 250.315L903.963 250.298L903.991 250.279L902.042 247.038ZM918.26 228.843L915.049 226.98L915.033 227.01L915.017 227.04L918.26 228.843ZM918.26 177.469L915.034 179.305L915.05 179.335L915.067 179.366L918.26 177.469ZM902.042 159.809L900.093 163.051L900.121 163.069L900.15 163.087L902.042 159.809ZM855.19 159.809L857.082 163.087L857.094 163.08L857.105 163.073L855.19 159.809ZM855.19 247.038L853.241 250.279L853.286 250.309L853.332 250.337L855.19 247.038ZM878.616 273.719C865.82 273.719 854.453 270.657 844.422 264.603L840.729 271.214C851.98 278.004 864.64 281.364 878.616 281.364V273.719ZM844.461 264.626C834.366 258.365 826.407 249.925 820.541 239.255L814.155 243.048C820.645 254.854 829.505 264.252 840.691 271.191L844.461 264.626ZM820.541 239.255C814.7 228.63 811.665 216.61 811.5 203.108L804.146 203.204C804.325 217.886 807.64 231.197 814.155 243.048L820.541 239.255ZM811.5 203.156V81.1431H804.145V203.156H811.5ZM811.5 81.1431C811.5 77.8772 812.425 75.6097 814.027 73.9462L808.826 68.5397C805.622 71.8706 804.145 76.2037 804.145 81.1431H811.5ZM813.935 74.0372C815.777 72.2513 818.034 71.3194 820.951 71.3194V63.6745C816.318 63.6745 812.225 65.2401 808.917 68.4487L813.935 74.0372ZM820.951 71.3194C824.094 71.3194 826.274 72.2819 827.876 73.9462L833.076 68.5397C829.872 65.2096 825.704 63.6745 820.951 63.6745V71.3194ZM827.876 73.9462C829.477 75.6097 830.403 77.8772 830.403 81.1431H837.758C837.758 76.2037 836.281 71.8698 833.076 68.5397L827.876 73.9462ZM830.403 81.1431V153.388H837.758V81.1431H830.403ZM836.906 155.835C842.582 148.755 849.378 143.205 857.322 139.161L854.086 132.295C845.212 136.813 837.592 143.036 831.255 150.941L836.906 155.835ZM857.349 139.147C865.391 134.967 874.177 132.861 883.764 132.861V125.216C873.1 125.216 863.179 127.569 854.06 132.309L857.349 139.147ZM883.764 132.861C895.636 132.861 906.184 135.977 915.51 142.161L919.465 135.716C908.883 128.7 896.948 125.216 883.764 125.216V132.861ZM915.548 142.186C924.92 148.233 932.283 156.543 937.656 167.202L944.171 163.655C938.216 151.838 929.962 142.488 919.427 135.691L915.548 142.186ZM937.689 167.266C943.193 177.699 945.988 189.63 945.988 203.156H953.343C953.343 188.499 950.303 175.277 944.138 163.591L937.689 167.266ZM945.988 203.156C945.988 216.625 942.962 228.612 936.97 239.216L943.312 243.087C950.02 231.215 953.343 217.872 953.343 203.156H945.988ZM936.949 239.255C931.082 249.925 923.122 258.365 913.028 264.626L916.797 271.191C927.984 264.252 936.843 254.854 943.334 243.048L936.949 239.255ZM913.066 264.603C903.042 270.652 891.594 273.719 878.616 273.719V281.364C892.755 281.364 905.502 278.008 916.759 271.214L913.066 264.603ZM878.615 257.282C887.97 257.282 896.444 254.986 903.933 250.315L900.149 243.761C893.909 247.652 886.766 249.637 878.615 249.637V257.282ZM903.991 250.279C911.419 245.454 917.263 238.885 921.502 230.646L915.017 227.04C911.363 234.143 906.393 239.703 900.092 243.797L903.991 250.279ZM921.471 230.706C925.918 222.423 928.115 213.212 928.115 203.156H920.76C920.76 212.01 918.838 219.922 915.048 226.98L921.471 230.706ZM928.115 203.156C928.115 192.937 925.924 183.707 921.452 175.572L915.067 179.366C918.832 186.215 920.76 194.11 920.76 203.156H928.115ZM921.485 175.633C917.233 167.563 911.373 161.172 903.933 156.532L900.149 163.087C906.439 167.009 911.391 172.391 915.033 179.305L921.485 175.633ZM903.991 156.568C896.494 151.698 887.999 149.298 878.615 149.298V156.943C886.737 156.943 893.86 159.002 900.093 163.051L903.991 156.568ZM878.615 149.298C869.388 149.298 860.912 151.705 853.275 156.546L857.104 163.073C863.539 158.994 870.681 156.943 878.615 156.943V149.298ZM853.297 156.532C845.857 161.172 839.997 167.563 835.746 175.633L842.197 179.305C845.84 172.391 850.793 167.009 857.082 163.087L853.297 156.532ZM835.746 175.633C831.466 183.757 829.373 192.965 829.373 203.156H836.728C836.728 194.082 838.583 186.165 842.197 179.305L835.746 175.633ZM829.373 203.156C829.373 213.183 831.471 222.374 835.729 230.646L842.214 227.04C838.576 219.972 836.728 212.037 836.728 203.156H829.373ZM835.729 230.646C839.968 238.885 845.812 245.454 853.24 250.279L857.139 243.797C850.837 239.703 845.869 234.143 842.214 227.04L835.729 230.646ZM853.332 250.337C860.962 254.979 869.417 257.282 878.615 257.282V249.637C870.651 249.637 863.49 247.66 857.047 243.739L853.332 250.337ZM1003.5 267.909L1001.52 271.131L1001.54 271.144L1001.56 271.156L1003.5 267.909ZM979.817 241.419L976.559 243.193L976.576 243.225L976.592 243.257L979.817 241.419ZM980.589 165.428L977.418 163.493L977.407 163.512L977.396 163.532L980.589 165.428ZM1006.07 138.939L1007.92 142.244L1007.93 142.24L1007.94 142.234L1006.07 138.939ZM1078.41 138.939L1076.53 142.221L1076.55 142.233L1076.57 142.244L1078.41 138.939ZM1103.64 165.428L1100.45 167.325L1100.46 167.344L1100.47 167.364L1103.64 165.428ZM1113.16 203.424V207.246H1116.84V203.424H1113.16ZM1103.13 203.424V199.601H1099.45V203.424H1103.13ZM1094.37 241.419L1091.14 239.603L1091.13 239.613L1091.13 239.623L1094.37 241.419ZM1070.95 267.909L1072.89 271.156L1072.91 271.144L1072.92 271.131L1070.95 267.909ZM1065.8 247.038L1067.69 250.315L1067.72 250.298L1067.75 250.279L1065.8 247.038ZM1082.02 229.111L1085.24 230.947L1085.25 230.93L1085.26 230.913L1082.02 229.111ZM1082.02 177.737L1078.77 179.539L1078.78 179.556L1078.79 179.573L1082.02 177.737ZM1065.8 159.809L1063.85 163.051L1063.88 163.069L1063.91 163.087L1065.8 159.809ZM1018.95 159.809L1020.84 163.087L1020.85 163.08L1020.86 163.073L1018.95 159.809ZM1002.47 177.737L999.26 175.874L999.252 175.887L999.245 175.9L1002.47 177.737ZM1002.47 229.111L999.228 230.913L999.252 230.961L999.277 231.007L1002.47 229.111ZM1018.95 247.038L1017 250.279L1017.04 250.309L1017.09 250.337L1018.95 247.038ZM1090.51 272.993L1087.82 275.601L1087.91 275.697L1088 275.787L1090.51 272.993ZM1086.91 222.154L1083.29 221.479L1083.23 221.814V222.154H1086.91ZM1091.8 193.791L1093.26 190.284L1089 188.362L1088.18 193.117L1091.8 193.791ZM1113.16 203.424H1116.84V200.915L1114.63 199.917L1113.16 203.424ZM1037.22 273.719C1025.33 273.719 1014.77 270.681 1005.44 264.661L1001.56 271.156C1012.14 277.98 1024.06 281.364 1037.22 281.364V273.719ZM1005.48 264.686C996.06 258.441 988.588 250.094 983.042 239.581L976.592 243.257C982.716 254.863 991.033 264.176 1001.52 271.131L1005.48 264.686ZM983.075 239.645C977.717 229.013 975 216.967 975 203.424H967.645C967.645 218.064 970.59 231.349 976.559 243.193L983.075 239.645ZM975 203.424C975 189.936 977.949 177.935 983.782 167.325L977.396 163.532C970.873 175.398 967.645 188.727 967.645 203.424H975ZM983.76 167.364C989.796 156.683 997.839 148.329 1007.92 142.244L1004.23 135.633C993.029 142.391 984.082 151.698 977.418 163.493L983.76 167.364ZM1007.94 142.234C1018.15 136.002 1029.59 132.861 1042.37 132.861V125.216C1028.38 125.216 1015.63 128.675 1004.21 135.643L1007.94 142.234ZM1042.37 132.861C1055.15 132.861 1066.5 136.003 1076.53 142.221L1080.3 135.656C1069.04 128.675 1056.37 125.216 1042.37 125.216V132.861ZM1076.57 142.244C1086.64 148.324 1094.59 156.664 1100.45 167.325L1106.83 163.532C1100.34 151.716 1091.47 142.397 1080.26 135.633L1076.57 142.244ZM1100.47 167.364C1106.46 177.968 1109.49 189.955 1109.49 203.424H1116.84C1116.84 188.708 1113.52 175.365 1106.81 163.493L1100.47 167.364ZM1113.16 199.601H1103.13V207.246H1113.16V199.601ZM1099.45 203.424C1099.45 216.949 1096.65 228.979 1091.14 239.603L1097.61 243.235C1103.76 231.383 1106.8 218.083 1106.8 203.424H1099.45ZM1091.13 239.623C1085.75 250.114 1078.38 258.447 1068.97 264.686L1072.92 271.131C1083.42 264.17 1091.66 254.843 1097.62 243.215L1091.13 239.623ZM1069.01 264.661C1059.68 270.681 1049.12 273.719 1037.22 273.719V281.364C1050.39 281.364 1062.31 277.98 1072.89 271.156L1069.01 264.661ZM1042.37 257.282C1051.73 257.282 1060.2 254.986 1067.69 250.315L1063.91 243.761C1057.67 247.652 1050.52 249.637 1042.37 249.637V257.282ZM1067.75 250.279C1075.15 245.467 1081 239.004 1085.24 230.947L1078.79 227.274C1075.14 234.201 1070.17 239.69 1063.85 243.797L1067.75 250.279ZM1085.26 230.913C1089.52 222.642 1091.61 213.451 1091.61 203.424H1084.26C1084.26 212.305 1082.41 220.239 1078.77 227.308L1085.26 230.913ZM1091.61 203.424C1091.61 193.232 1089.52 184.025 1085.24 175.9L1078.79 179.573C1082.4 186.433 1084.26 194.35 1084.26 203.424H1091.61ZM1085.26 175.934C1081.01 167.683 1075.15 161.185 1067.69 156.532L1063.91 163.087C1070.17 166.996 1075.12 172.45 1078.77 179.539L1085.26 175.934ZM1067.75 156.568C1060.25 151.698 1051.76 149.298 1042.37 149.298V156.943C1050.49 156.943 1057.62 159.002 1063.85 163.051L1067.75 156.568ZM1042.37 149.298C1033.14 149.298 1024.67 151.705 1017.03 156.546L1020.86 163.073C1027.3 158.994 1034.44 156.943 1042.37 156.943V149.298ZM1017.05 156.532C1009.61 161.176 1003.67 167.654 999.26 175.874L1005.68 179.6C1009.51 172.479 1014.56 167.006 1020.84 163.087L1017.05 156.532ZM999.245 175.9C994.965 184.025 992.873 193.232 992.873 203.424H1000.23C1000.23 194.35 1002.08 186.433 1005.7 179.573L999.245 175.9ZM992.873 203.424C992.873 213.451 994.971 222.642 999.228 230.913L1005.71 227.308C1002.08 220.239 1000.23 212.305 1000.23 203.424H992.873ZM999.277 231.007C1003.69 239.033 1009.6 245.476 1017 250.279L1020.89 243.797C1014.56 239.681 1009.49 234.172 1005.66 227.214L999.277 231.007ZM1017.09 250.337C1024.72 254.979 1033.17 257.282 1042.37 257.282V249.637C1034.41 249.637 1027.25 247.66 1020.8 243.739L1017.09 250.337ZM1100.04 272.916C1097.12 272.916 1094.86 271.984 1093.02 270.198L1088 275.787C1091.31 278.995 1095.4 280.561 1100.04 280.561V272.916ZM1093.2 270.384C1091.48 268.471 1090.59 266.125 1090.59 263.092H1083.23C1083.23 267.909 1084.74 272.163 1087.82 275.601L1093.2 270.384ZM1090.59 263.092V222.154H1083.23V263.092H1090.59ZM1090.53 222.828L1095.42 194.465L1088.18 193.117L1083.29 221.479L1090.53 222.828ZM1090.34 197.298L1111.7 206.93L1114.63 199.917L1093.26 190.284L1090.34 197.298ZM1109.49 203.424V263.092H1116.84V203.424H1109.49ZM1109.49 263.092C1109.49 266.045 1108.56 268.36 1106.7 270.289L1111.9 275.696C1115.2 272.274 1116.84 267.989 1116.84 263.092H1109.49ZM1106.7 270.289C1105.07 271.987 1102.95 272.916 1100.04 272.916V280.561C1104.67 280.561 1108.73 278.992 1111.9 275.696L1106.7 270.289ZM1159.71 271.922L1158.42 275.504L1158.46 275.518L1158.49 275.53L1159.71 271.922ZM1136.03 257.206L1133.34 259.82L1133.38 259.865L1133.43 259.909L1136.03 257.206ZM1132.68 247.573L1129.04 247.033L1129.03 247.112L1129.02 247.192L1132.68 247.573ZM1137.83 238.476L1140.06 241.512L1140.09 241.487L1140.13 241.46L1137.83 238.476ZM1147.87 234.997L1147.29 238.773L1147.4 238.79L1147.5 238.801L1147.87 234.997ZM1156.62 239.546L1159.36 236.997L1159.33 236.967L1159.31 236.938L1156.62 239.546ZM1170.52 249.179L1168.99 252.652L1169.04 252.678L1169.09 252.701L1170.52 249.179ZM1214.8 248.376L1212.88 245.117L1212.85 245.131L1212.83 245.147L1214.8 248.376ZM1215.57 221.351L1213.35 224.396L1213.37 224.415L1213.4 224.434L1215.57 221.351ZM1188.03 211.718L1187.31 215.468L1187.34 215.474L1187.38 215.481L1188.03 211.718ZM1150.18 195.664L1147.74 198.521L1147.76 198.535L1147.77 198.549L1150.18 195.664ZM1146.32 146.966L1149.04 149.537L1149.06 149.516L1149.08 149.495L1146.32 146.966ZM1166.14 133.587L1167.33 137.206L1167.36 137.194L1167.4 137.182L1166.14 133.587ZM1242.34 150.177L1239.49 152.584L1239.53 152.64L1239.58 152.694L1242.34 150.177ZM1245.69 159.274L1249.36 159.499V159.486L1245.69 159.274ZM1241.31 167.034L1243.4 170.184L1243.46 170.139L1243.52 170.092L1241.31 167.034ZM1222.01 164.091L1219.46 166.848L1219.48 166.866L1219.5 166.885L1222.01 164.091ZM1171.55 156.866L1169.95 153.425L1169.93 153.436L1169.91 153.447L1171.55 156.866ZM1166.14 177.469L1162.99 179.435L1163.07 179.567L1163.15 179.691L1166.14 177.469ZM1175.93 184.426L1174.48 187.94L1174.53 187.963L1174.58 187.984L1175.93 184.426ZM1197.04 190.313L1196.3 194.058L1196.31 194.059L1196.32 194.061L1197.04 190.313ZM1227.41 200.48L1225.68 203.851L1225.69 203.859L1225.71 203.868L1227.41 200.48ZM1243.63 214.929L1240.5 216.927L1240.51 216.951L1240.53 216.974L1243.63 214.929ZM1242.09 255.868L1239.04 253.728L1239.02 253.758L1239 253.788L1242.09 255.868ZM1223.55 271.655L1222.02 268.18L1222.01 268.186L1221.99 268.193L1223.55 271.655ZM1193.17 273.719C1181.53 273.719 1170.79 271.905 1160.92 268.315L1158.49 275.53C1169.22 279.432 1180.79 281.364 1193.17 281.364V273.719ZM1160.99 268.341C1151.2 264.544 1143.81 259.891 1138.63 254.503L1133.43 259.909C1139.57 266.293 1147.97 271.451 1158.42 275.504L1160.99 268.341ZM1138.71 254.591C1136.79 252.46 1136.11 250.315 1136.34 247.954L1129.02 247.192C1128.56 251.966 1130.12 256.243 1133.34 259.82L1138.71 254.591ZM1136.32 248.114C1136.7 245.369 1137.9 243.229 1140.06 241.512L1135.59 235.439C1131.92 238.36 1129.69 242.285 1129.04 247.033L1136.32 248.114ZM1140.13 241.46C1143.03 239.044 1145.36 238.456 1147.29 238.773L1148.44 231.221C1143.85 230.468 1139.49 232.198 1135.53 235.491L1140.13 241.46ZM1147.5 238.801C1150.03 239.063 1152.12 240.141 1153.93 242.154L1159.31 236.938C1156.31 233.6 1152.57 231.645 1148.23 231.194L1147.5 238.801ZM1153.88 242.095C1157.27 246.039 1162.42 249.517 1168.99 252.652L1172.06 245.706C1165.92 242.776 1161.8 239.831 1159.36 236.997L1153.88 242.095ZM1169.09 252.701C1176.12 255.775 1183.82 257.282 1192.15 257.282V249.637C1184.68 249.637 1177.97 248.29 1171.95 245.656L1169.09 252.701ZM1192.15 257.282C1202.4 257.282 1210.77 255.556 1216.77 251.605L1212.83 245.147C1208.54 247.975 1201.8 249.637 1192.15 249.637V257.282ZM1216.72 251.635C1222.84 247.738 1226.49 242.31 1226.71 235.393L1219.36 235.137C1219.24 238.922 1217.4 242.236 1212.88 245.117L1216.72 251.635ZM1226.71 235.393C1226.93 228.472 1223.61 222.737 1217.75 218.269L1213.4 224.434C1217.83 227.813 1219.48 231.355 1219.36 235.137L1226.71 235.393ZM1217.79 218.306C1212.06 213.788 1202.11 210.463 1188.68 207.956L1187.38 215.481C1200.71 217.969 1209.12 221.066 1213.35 224.396L1217.79 218.306ZM1188.74 207.969C1171.65 204.452 1159.78 199.273 1152.6 192.78L1147.77 198.549C1156.38 206.326 1169.73 211.85 1187.31 215.468L1188.74 207.969ZM1152.63 192.807C1145.66 186.366 1142.28 178.65 1142.28 169.442H1134.92C1134.92 180.926 1139.27 190.692 1147.74 198.521L1152.63 192.807ZM1142.28 169.442C1142.28 161.15 1144.6 154.619 1149.04 149.537L1143.6 144.395C1137.75 151.086 1134.92 159.54 1134.92 169.442H1142.28ZM1149.08 149.495C1153.77 143.976 1159.81 139.866 1167.33 137.206L1164.96 129.969C1156.35 133.016 1149.18 137.826 1143.57 144.437L1149.08 149.495ZM1167.4 137.182C1175.05 134.303 1183.04 132.861 1191.37 132.861V125.216C1182.2 125.216 1173.37 126.806 1164.89 129.993L1167.4 137.182ZM1191.37 132.861C1202.31 132.861 1211.86 134.67 1220.09 138.192L1222.89 131.123C1213.62 127.153 1203.09 125.216 1191.37 125.216V132.861ZM1220.09 138.192C1228.37 141.734 1234.78 146.554 1239.49 152.584L1245.2 147.769C1239.61 140.599 1232.12 135.073 1222.89 131.123L1220.09 138.192ZM1239.58 152.694C1241.47 154.94 1242.12 157.026 1242.02 159.062L1249.36 159.486C1249.6 155.101 1248.02 151.121 1245.11 147.659L1239.58 152.694ZM1242.02 159.049C1241.93 160.76 1241.15 162.38 1239.11 163.976L1243.52 170.092C1246.96 167.407 1249.12 163.854 1249.36 159.499L1242.02 159.049ZM1239.23 163.884C1237.41 165.187 1235.17 165.709 1232.19 165.146L1230.87 172.667C1235.45 173.532 1239.73 172.805 1243.4 170.184L1239.23 163.884ZM1232.19 165.146C1229.04 164.552 1226.53 163.249 1224.52 161.296L1219.5 166.885C1222.63 169.927 1226.47 171.836 1230.87 172.667L1232.19 165.146ZM1224.55 161.333C1219.91 156.699 1214.79 153.415 1209.2 151.61L1207.02 158.911C1211.37 160.317 1215.52 162.92 1219.46 166.848L1224.55 161.333ZM1209.2 151.61C1203.79 149.866 1197.66 149.03 1190.86 149.03V156.675C1197.1 156.675 1202.47 157.444 1207.02 158.911L1209.2 151.61ZM1190.86 149.03C1182.9 149.03 1175.89 150.439 1169.95 153.425L1173.15 160.307C1177.85 157.942 1183.71 156.675 1190.86 156.675V149.03ZM1169.91 153.447C1166.91 155.002 1164.44 157.04 1162.72 159.663C1160.98 162.316 1160.15 165.357 1160.15 168.639H1167.51C1167.51 166.749 1167.96 165.24 1168.8 163.97C1169.65 162.669 1171.04 161.406 1173.2 160.285L1169.91 153.447ZM1160.15 168.639C1160.15 172.522 1161.09 176.148 1162.99 179.435L1169.3 175.503C1168.11 173.439 1167.51 171.178 1167.51 168.639H1160.15ZM1163.15 179.691C1165.46 183.045 1169.47 185.707 1174.48 187.94L1177.38 180.912C1172.78 178.864 1170.26 176.887 1169.14 175.248L1163.15 179.691ZM1174.58 187.984C1179.69 190.067 1186.97 192.082 1196.3 194.058L1197.77 186.567C1188.57 184.619 1181.78 182.709 1177.27 180.868L1174.58 187.984ZM1196.32 194.061C1209.01 196.7 1218.74 199.996 1225.68 203.851L1229.15 197.11C1221.32 192.76 1210.81 189.277 1197.76 186.564L1196.32 194.061ZM1225.71 203.868C1232.88 207.763 1237.69 212.164 1240.5 216.927L1246.76 212.932C1243.05 206.635 1237.05 201.403 1229.12 197.093L1225.71 203.868ZM1240.53 216.974C1243.37 221.639 1244.85 227.154 1244.85 233.659H1252.2C1252.2 225.894 1250.42 218.922 1246.74 212.884L1240.53 216.974ZM1244.85 233.659C1244.85 241.127 1242.9 247.78 1239.04 253.728L1245.13 258.008C1249.85 250.756 1252.2 242.603 1252.2 233.659H1244.85ZM1239 253.788C1235.33 259.668 1229.75 264.497 1222.02 268.18L1225.08 275.129C1233.83 270.963 1240.6 265.268 1245.17 257.948L1239 253.788ZM1221.99 268.193C1214.56 271.809 1205.01 273.719 1193.17 273.719V281.364C1205.71 281.364 1216.41 279.349 1225.11 275.116L1221.99 268.193ZM1299.49 268.176L1297.68 271.508L1297.71 271.525L1297.74 271.542L1299.49 268.176ZM1273.49 241.954L1270.29 243.851L1270.31 243.882L1270.32 243.913L1273.49 241.954ZM1272.97 164.893L1269.76 163.037L1269.75 163.046L1269.74 163.055L1272.97 164.893ZM1297.68 138.671L1299.52 141.987L1299.53 141.975L1299.55 141.963L1297.68 138.671ZM1368.22 138.404L1366.27 141.645L1366.29 141.658L1366.31 141.671L1368.22 138.404ZM1390.1 163.823L1386.78 165.464L1386.79 165.499L1386.81 165.532L1390.1 163.823ZM1394.48 209.578L1396.97 212.387L1397.02 212.335L1397.07 212.281L1394.48 209.578ZM1282.24 212.789H1278.56V216.611H1282.24V212.789ZM1282.24 191.383V187.56H1278.56V191.383H1282.24ZM1385.21 191.383L1387.28 194.54L1397.12 187.56H1385.21V191.383ZM1374.66 198.875L1370.98 198.951L1371.11 206.017L1376.73 202.032L1374.66 198.875ZM1369.51 175.061L1366.18 176.701L1366.19 176.718L1366.2 176.735L1369.51 175.061ZM1308.5 158.739L1306.58 155.475L1306.56 155.486L1306.55 155.498L1308.5 158.739ZM1292.79 177.202L1296.1 178.879L1296.1 178.864L1296.11 178.848L1292.79 177.202ZM1353.8 251.587L1355 255.201L1355.03 255.191L1355.06 255.179L1353.8 251.587ZM1367.45 244.362L1365.27 241.28L1365.26 241.292L1365.24 241.304L1367.45 244.362ZM1375.68 241.419V245.241H1375.79L1375.89 245.235L1375.68 241.419ZM1383.67 244.095L1386.1 241.229L1386.07 241.203L1386.04 241.177L1383.67 244.095ZM1384.18 261.219L1381.94 258.183L1381.91 258.204L1381.89 258.226L1384.18 261.219ZM1362.3 272.993L1361.14 269.367L1361.12 269.37L1361.11 269.373L1362.3 272.993ZM1337.59 273.719C1323.87 273.719 1311.78 270.718 1301.23 264.811L1297.74 271.542C1309.5 278.121 1322.81 281.364 1337.59 281.364V273.719ZM1301.29 264.845C1290.85 258.744 1282.66 250.472 1276.64 239.995L1270.32 243.913C1277.01 255.555 1286.15 264.765 1297.68 271.508L1301.29 264.845ZM1276.68 240.057C1270.85 229.462 1267.9 217.286 1267.9 203.424H1260.54C1260.54 218.459 1263.76 231.97 1270.29 243.851L1276.68 240.057ZM1267.9 203.424C1267.9 189.336 1270.7 177.144 1276.19 166.731L1269.74 163.055C1263.57 174.762 1260.54 188.257 1260.54 203.424H1267.9ZM1276.19 166.749C1281.88 156.104 1289.64 147.875 1299.52 141.987L1295.85 135.356C1284.79 141.955 1276.07 151.207 1269.76 163.037L1276.19 166.749ZM1299.55 141.963C1309.39 135.927 1320.74 132.861 1333.72 132.861V125.216C1319.59 125.216 1306.91 128.571 1295.82 135.379L1299.55 141.963ZM1333.72 132.861C1346.54 132.861 1357.34 135.846 1366.27 141.645L1370.17 135.162C1359.87 128.475 1347.67 125.216 1333.72 125.216V132.861ZM1366.31 141.671C1375.29 147.336 1382.1 155.235 1386.78 165.464L1393.42 162.182C1388.14 150.648 1380.37 141.601 1370.12 135.136L1366.31 141.671ZM1386.81 165.532C1391.66 175.618 1394.15 187.412 1394.15 201.016H1401.5C1401.5 186.435 1398.83 173.433 1393.39 162.114L1386.81 165.532ZM1394.15 201.016C1394.15 203.429 1393.39 205.299 1391.87 206.875L1397.07 212.281C1400.02 209.219 1401.5 205.381 1401.5 201.016H1394.15ZM1391.98 206.769C1390.52 208.172 1388.62 208.966 1385.98 208.966V216.611C1390.21 216.611 1393.97 215.265 1396.97 212.387L1391.98 206.769ZM1385.98 208.966H1282.24V216.611H1385.98V208.966ZM1285.92 212.789V191.383H1278.56V212.789H1285.92ZM1282.24 195.205H1385.21V187.56H1282.24V195.205ZM1383.14 188.226L1372.58 195.718L1376.73 202.032L1387.28 194.54L1383.14 188.226ZM1378.33 198.799C1378.15 189.41 1376.34 180.912 1372.81 173.387L1366.2 176.735C1369.19 183.123 1370.82 190.502 1370.98 198.951L1378.33 198.799ZM1372.82 173.421C1369.29 165.691 1364.23 159.519 1357.62 155.009L1353.58 161.399C1359 165.094 1363.2 170.161 1366.18 176.701L1372.82 173.421ZM1357.62 155.009C1350.91 150.423 1342.88 148.227 1333.72 148.227V155.872C1341.73 155.872 1348.29 157.779 1353.58 161.399L1357.62 155.009ZM1333.72 148.227C1323.39 148.227 1314.29 150.587 1306.58 155.475L1310.41 162.003C1316.77 157.972 1324.49 155.872 1333.72 155.872V148.227ZM1306.55 155.498C1299.07 160.356 1293.37 167.074 1289.48 175.555L1296.11 178.848C1299.43 171.632 1304.19 166.042 1310.45 161.981L1306.55 155.498ZM1289.49 175.524C1285.61 183.79 1283.71 193.118 1283.71 203.424H1291.06C1291.06 194.107 1292.77 185.954 1296.1 178.879L1289.49 175.524ZM1283.71 203.424C1283.71 213.836 1285.99 223.253 1290.65 231.567L1297 227.725C1293.07 220.698 1291.06 212.633 1291.06 203.424H1283.71ZM1290.65 231.567C1295.26 239.833 1301.66 246.377 1309.77 251.164L1313.4 244.517C1306.41 240.385 1300.96 234.8 1297 227.725L1290.65 231.567ZM1309.77 251.164C1317.94 255.99 1327.24 258.353 1337.59 258.353V250.708C1328.35 250.708 1320.33 248.61 1313.4 244.517L1309.77 251.164ZM1337.59 258.353C1343.34 258.353 1349.16 257.288 1355 255.201L1352.6 247.972C1347.46 249.809 1342.46 250.708 1337.59 250.708V258.353ZM1355.06 255.179C1360.94 252.957 1365.84 250.393 1369.65 247.42L1365.24 241.304C1362.19 243.683 1358 245.935 1352.55 247.994L1355.06 255.179ZM1369.62 247.445C1371.63 245.916 1373.63 245.241 1375.68 245.241V237.597C1371.91 237.597 1368.41 238.885 1365.27 241.28L1369.62 247.445ZM1375.89 245.235C1378.1 245.108 1379.82 245.722 1381.29 247.013L1386.04 241.177C1383.05 238.544 1379.44 237.373 1375.48 237.603L1375.89 245.235ZM1381.23 246.961C1383.61 249.144 1384.52 251.195 1384.63 253.136L1391.97 252.713C1391.73 248.232 1389.55 244.397 1386.1 241.229L1381.23 246.961ZM1384.63 253.136C1384.72 254.835 1384.11 256.467 1381.94 258.183L1386.42 264.256C1390.09 261.333 1392.22 257.436 1391.97 252.713L1384.63 253.136ZM1381.89 258.226C1376.46 262.708 1369.57 266.442 1361.14 269.367L1363.46 276.619C1372.53 273.477 1380.22 269.363 1386.47 264.213L1381.89 258.226ZM1361.11 269.373C1352.85 272.291 1345.02 273.719 1337.59 273.719V281.364C1345.93 281.364 1354.58 279.759 1363.48 276.612L1361.11 269.373Z" fill="#0A45FB"/>
</g>
<defs>
<clipPath id="clip0_78_589">
<rect width="371" height="370" fill="white"/>
</clipPath>
</defs>
</svg>
